<?xml version="1.0" standalone="no"?>
<!DOCTYPE svg PUBLIC "-//W3C//DTD SVG 1.1//EN" "http://www.w3.org/Graphics/SVG/1.1/DTD/svg11.dtd" >
<svg xmlns="http://www.w3.org/2000/svg">
<metadata></metadata>
<defs>
<font id="exolight" horiz-adv-x="1382" >
<font-face units-per-em="2048" ascent="1638" descent="-410" />
<missing-glyph horiz-adv-x="532" />
<glyph unicode="&#xfb01;" horiz-adv-x="1234" d="M45 967v88l201 28v113q0 185 105 299.5t286 114.5q66 0 179.5 -18t199.5 -42v-75l-352 20q-60 3 -112 -11t-95.5 -47.5t-69 -95t-25.5 -145.5v-113l748 -18v-1065h-119v967h-629v-967h-116v967h-201z" />
<glyph unicode="&#xfb02;" horiz-adv-x="1470" d="M45 971v86l203 30v109q0 68 11 128t36 113t63 91t95 60t129 22h530v-1221q0 -66 8 -113.5t19 -74.5t31.5 -44.5t37.5 -24t45 -13.5q158 -37 172 -37v-80h-165q-140 0 -202.5 88.5t-62.5 298.5v1106h-387q-119 0 -181 -67t-62 -232v-109h299v-116h-302v-971h-116v971h-201 z" />
<glyph horiz-adv-x="0" />
<glyph unicode="&#xd;" horiz-adv-x="1984" />
<glyph unicode=" "  horiz-adv-x="532" />
<glyph unicode="&#x09;" horiz-adv-x="532" />
<glyph unicode="&#xa0;" horiz-adv-x="532" />
<glyph unicode="!" horiz-adv-x="542" d="M188 39v121q0 43 41 43h82q18 0 28.5 -12t10.5 -31v-121q0 -18 -10.5 -28.5t-28.5 -10.5h-82q-19 0 -30 11t-11 28zM201 1497h135l-12 -1096h-111z" />
<glyph unicode="&#x22;" horiz-adv-x="694" d="M164 1362v137h119v-137l-19 -275h-82zM416 1362v137h119v-137l-19 -275h-82z" />
<glyph unicode="#" d="M45 487l12 80h340l58 365h-340l14 80h338l78 487h80l-78 -487h352l78 487h78l-76 -487h362l-14 -80h-362l-58 -367h363l-13 -80h-362l-78 -485h-78l76 485l-352 2l-78 -487h-78l76 487h-338zM477 567l350 -2l58 367h-350z" />
<glyph unicode="$" horiz-adv-x="1183" d="M125 1012v135q1 86 21.5 150.5t55 105t86 65t108.5 34t130 9.5v177h92v-181q73 -6 217 -22.5t164 -18.5v-88l-471 19q-68 2 -116.5 -6.5t-89 -34.5t-60.5 -78t-20 -131v-135q0 -64 19 -108.5t54 -67t76 -32t94 -9.5h248q81 0 141.5 -19.5t95 -50t55.5 -76.5t27.5 -90 t6.5 -100v-140q0 -355 -441 -335v-166h-92v174q-251 20 -356 37v84q24 -1 111.5 -4.5t185.5 -6t182 -2.5q293 0 293 219v140q0 108 -47.5 162.5t-161.5 54.5h-246q-362 0 -362 336z" />
<glyph unicode="%" horiz-adv-x="1953" d="M96 971v272q0 136 57 196t207 60h207q146 0 203 -60.5t57 -195.5v-272q0 -136 -57 -196t-207 -60h-207q-146 0 -203 60.5t-57 195.5zM195 971q0 -93 35.5 -125.5t125.5 -32.5h207q99 0 132.5 32.5t33.5 125.5v272q0 91 -35 124.5t-127 33.5h-207q-99 0 -132 -32.5 t-33 -125.5v-272zM475 0l897 1499h111l-897 -1499h-111zM1128 260v272q0 136 57.5 196t207.5 60h206q146 0 203.5 -60.5t57.5 -195.5v-272q0 -136 -57.5 -196t-207.5 -60h-206q-146 0 -203.5 60.5t-57.5 195.5zM1227 260q0 -92 35.5 -125t126.5 -33h206q98 0 132 32.5 t34 125.5v272q0 91 -35 124.5t-127 33.5h-206q-99 0 -132.5 -32.5t-33.5 -125.5v-272z" />
<glyph unicode="&#x26;" horiz-adv-x="1314" d="M78.5 372.5q-13.5 107.5 30 204t133.5 173.5l176 149l-129 174q-79 111 -67 201t72.5 148t137.5 69q235 30 545 -27v-78h-416q-70 0 -120.5 -16.5t-78.5 -49t-17 -89t65 -129.5l520 -703l260 265l39 -39l-119 -203l-109 -113l224 -309h-142l-168 227l-147 -137 q-81 -76 -192 -95t-222 26t-186 147q-76 97 -89.5 204.5zM196 377q15 -72 70 -144q50 -64 122.5 -99.5t153.5 -28t142 64.5l160 149l-359 484l-159 -133q-83 -68 -114 -144.5t-16 -148.5z" />
<glyph unicode="'" horiz-adv-x="327" d="M104 1362v137h119v-137l-16 -275h-82z" />
<glyph unicode="(" horiz-adv-x="671" d="M172 668q0 157 33.5 327.5t81.5 301.5t96 239.5t81 166.5l34 58h127q-14 -22 -36.5 -61.5t-80.5 -162t-102 -245.5t-80.5 -295.5t-36.5 -328.5q0 -125 18.5 -253.5t48.5 -233.5t66 -202.5t72 -170t66 -127.5t48 -83l19 -28h-129q-7 9 -18.5 27t-45.5 77.5t-65 124 t-68.5 165.5t-64.5 204t-45.5 235.5t-18.5 264.5z" />
<glyph unicode=")" horiz-adv-x="669" d="M45 -430q14 20 36.5 56t81 153t103 238t81 300t36.5 351q0 156 -35 326t-84.5 301t-99 240t-84.5 167l-35 59h129q13 -22 35 -61t78.5 -161t99.5 -245t78 -296t35 -330q0 -181 -33.5 -361t-81.5 -307t-96 -228t-81 -152l-34 -50h-129z" />
<glyph unicode="*" horiz-adv-x="919" d="M115 1178v63l286 41l7 -115zM262 844l55 276l117 -26l-112 -269zM381 1473l61 24l150 -246l-109 -49zM449 987l63 100l229 -180l-32 -51zM537 1157l239 160l31 -55l-193 -195z" />
<glyph unicode="+" horiz-adv-x="1058" d="M115 672v114h356v359h117v-359h358v-114h-358v-359h-117v359h-356z" />
<glyph unicode="," horiz-adv-x="483" d="M164 43v117q0 45 41 45h76q41 0 41 -45v-201q0 -32 -8.5 -56t-21.5 -37t-29 -21.5t-32 -10.5t-29 -2.5t-22 0.5l-8 2v47q22 -1 34.5 9t14.5 20t2 24v66h-18q-18 0 -29.5 11t-11.5 32z" />
<glyph unicode="-" horiz-adv-x="712" d="M45 537v114h623v-114h-623z" />
<glyph unicode="." horiz-adv-x="487" d="M164 39v121q0 43 39 43h80q43 0 43 -43v-121q0 -39 -43 -39h-80q-17 0 -28 11t-11 28z" />
<glyph unicode="/" horiz-adv-x="786" d="M45 -147l576 1724h120l-575 -1724h-121z" />
<glyph unicode="0" horiz-adv-x="1329" d="M160 332v835q0 159 99 245.5t253 86.5h315q176 0 259 -92.5t83 -239.5v-835q0 -332 -342 -332h-315q-73 0 -134 18t-111 55.5t-78.5 103.5t-28.5 155zM276 332q0 -110 66 -162.5t170 -52.5h315q226 0 226 215v835q0 215 -226 215h-315q-114 0 -175 -58.5t-61 -156.5v-835 z" />
<glyph unicode="1" horiz-adv-x="735" d="M92 1245v80l344 174h117v-1499h-117v1366z" />
<glyph unicode="2" horiz-adv-x="1222" d="M92 1401v84q271 35 602 35q107 0 189.5 -35.5t130.5 -96.5t72 -136t24 -162q0 -80 -37 -172t-94.5 -175t-136 -171t-151.5 -155.5t-152.5 -134t-126.5 -102.5t-86 -63h784v-117h-1004v109q63 45 118 86t150.5 116.5t171.5 143.5t163 156.5t145.5 166t97.5 162t39 154.5 q0 148 -76 227.5t-225 79.5h-598z" />
<glyph unicode="3" horiz-adv-x="1220" d="M68 1386v72q110 33 258.5 41t371.5 4q168 -3 260.5 -97.5t92.5 -240.5v-141q0 -117 -52.5 -186.5t-121.5 -92.5q174 -87 174 -294v-121q0 -344 -365 -344q-166 0 -239 1t-186 11.5t-181 32.5l4 73h592q54 0 94.5 8.5t79 31t59.5 69.5t21 117v121q0 62 -21.5 109t-58.5 73 t-77.5 38.5t-86.5 14.5l-479 14v88l479 19q114 3 181 58.5t67 158.5v141q0 111 -70.5 166t-175.5 55h-620z" />
<glyph unicode="4" horiz-adv-x="1214" d="M45 467l649 1032h137l-610 -977h647v445l58 153h59v-598h184v-90l-184 -31v-397h-117v397h-768z" />
<glyph unicode="5" horiz-adv-x="1265" d="M174 31v84h623q104 0 161.5 64t57.5 165v215q0 31 -2.5 55t-15 58.5t-34.5 57.5t-65 39.5t-102 16.5h-316q-76 0 -136 -51.5t-60 -136.5h-107l45 901h864v-117h-755l-29 -565q22 30 72 56t114 30q55 4 115 4t118 -2t75 -2q173 0 254.5 -91t81.5 -249v-223 q0 -80 -23 -143.5t-58.5 -101t-82 -61.5t-88.5 -33t-84 -9q-216 0 -339.5 6.5t-283.5 32.5z" />
<glyph unicode="6" horiz-adv-x="1284" d="M150 786q0 157 20 282t53 206.5t79 136t95.5 77.5t104.5 23q359 0 598 -32v-84h-580q-60 0 -107 -42t-73.5 -103t-43.5 -143t-23 -149t-7 -133q304 35 553 35q100 0 167.5 -23.5t101.5 -67.5t47.5 -94.5t13.5 -117.5v-254q0 -305 -330 -305h-284q-71 1 -126 21.5 t-105.5 74t-83 140.5t-51.5 226t-19 326zM266 743q0 -60 1.5 -110t8 -117t17.5 -120t31.5 -107.5t48 -91t69 -59.5t93.5 -23h284q47 0 81.5 7t67 26.5t49.5 60t17 100.5v248q0 107 -57.5 146.5t-157.5 39.5h-553z" />
<glyph unicode="7" horiz-adv-x="1110" d="M68 1382v117h925l49 -82l-524 -1417h-139l514 1382h-825z" />
<glyph unicode="8" horiz-adv-x="1312" d="M172 315v201q0 55 16.5 97t45 67t58.5 38.5t64 20.5q-53 15 -90.5 45.5t-57 71t-28 81t-8.5 85.5v133q0 100 26 170.5t75.5 110t112.5 56.5t146 17h279q168 0 250 -84t82 -270v-133q0 -30 -7.5 -64t-24.5 -72t-52 -67t-82 -37q83 -19 124.5 -98t41.5 -168v-201 q0 -76 -22.5 -134.5t-56.5 -91.5t-81 -54t-88.5 -28t-85.5 -7h-277q-72 0 -130.5 13.5t-95 33.5t-63.5 51t-40.5 57.5t-20.5 61t-8.5 54t-1.5 44.5zM289 309q0 -192 243 -192h277q86 0 151.5 48t65.5 144v215q0 54 -19 92.5t-52 57.5t-67 27t-73 8h-305q-38 0 -74.5 -9.5 t-70.5 -29.5t-55 -58t-21 -88v-215zM289 1012q0 -47 14.5 -82t36.5 -55t53 -32t58.5 -16t58.5 -4h305q59 0 102.5 18t66 47t32.5 60t10 64v139q0 129 -52.5 185.5t-162.5 56.5h-279q-129 0 -186 -51t-57 -191v-139z" />
<glyph unicode="9" horiz-adv-x="1284" d="M137 948v254q0 305 330 305h285q59 0 106.5 -14.5t92 -48t77.5 -93t58.5 -145t38 -208.5t12.5 -279q0 -193 -30 -338.5t-81 -227t-112 -120.5t-130 -39q-416 0 -598 33v84h578q61 0 108 41.5t74 103t44 143t23 149t7 134.5q-322 -37 -553 -37q-80 0 -140 16.5t-95.5 43 t-57.5 67t-29.5 82t-7.5 94.5zM252 948q0 -107 57.5 -146.5t157.5 -39.5h553q0 60 -1.5 110.5t-8 117.5t-17.5 120t-31.5 107.5t-48 91t-69 59.5t-92.5 23h-285q-47 0 -82 -7.5t-67 -27t-49 -60t-17 -100.5v-248z" />
<glyph unicode=":" horiz-adv-x="489" d="M164 39v121q0 43 39 43h80q43 0 43 -43v-121q0 -39 -43 -39h-80q-17 0 -28 11t-11 28zM164 926v121q0 40 39 40h80q43 0 43 -40v-121q0 -39 -43 -39h-80q-18 0 -28.5 10.5t-10.5 28.5z" />
<glyph unicode=";" horiz-adv-x="489" d="M164 43v117q0 19 11.5 32t29.5 13h76q20 0 30.5 -12.5t10.5 -32.5v-201q0 -32 -8.5 -56t-21.5 -37t-29 -21.5t-32 -10.5t-29 -2.5t-22 0.5l-8 2v47q22 -1 34.5 9t14.5 20t2 24v66h-18q-17 0 -29 13t-12 30zM166 926v121q0 43 41 43h80q41 0 41 -43v-121q0 -39 -41 -39 h-80q-19 0 -30 11t-11 28z" />
<glyph unicode="&#x3c;" horiz-adv-x="974" d="M115 666v120l747 353v-127l-592 -287l592 -307v-131z" />
<glyph unicode="=" horiz-adv-x="964" d="M45 434v117h875v-117h-875zM45 897v117h875v-117h-875z" />
<glyph unicode="&#x3e;" horiz-adv-x="974" d="M115 287v131l592 307l-592 287v127l747 -353v-120z" />
<glyph unicode="?" horiz-adv-x="1099" d="M45 1395v84q315 41 557 34q92 1 163 -18t117 -52t75 -82t41 -104t12 -122v-207q0 -200 -134.5 -277t-379.5 -45v-207h-119v303h264q114 3 184 57.5t70 168.5v207q0 140 -71.5 200t-235.5 60h-543zM354 39v121q0 43 41 43h84q18 0 28.5 -12t10.5 -31v-121 q0 -18 -10.5 -28.5t-28.5 -10.5h-84q-17 0 -29 11t-12 28z" />
<glyph unicode="@" horiz-adv-x="1742" d="M150 0v713q0 24 1 42.5t8 55.5t19 65.5t38 63t61 56.5t91 37.5t126 15.5h430q59 0 111 -14t99 -44.5t75 -89.5t28 -139v-762h-88l-23 131l-24 -15q-24 -16 -64.5 -38t-89 -43.5t-108 -37t-111.5 -15.5q-114 -3 -189 65.5t-73 173.5v109q0 125 69 198.5t195 73.5h391 q2 156 0 156q0 96 -51 135t-153 39h-424q-51 0 -89 -9.5t-71 -32.5t-50.5 -67.5t-17.5 -109.5v-713q0 -59 14 -104t36.5 -71.5t53.5 -43t60.5 -22t63.5 -5.5h694q133 0 189.5 59.5t56.5 186.5v1049q0 127 -65 197.5t-181 70.5h-817v74q85 17 248.5 30.5t341.5 12.5h227 q168 -3 265 -100.5t97 -284.5v-1049q0 -365 -362 -365h-694q-160 0 -252 94.5t-92 270.5zM582 279q0 -45 2 -46q0 -54 46 -95t113 -40q131 -2 379 117v307l-381 -28q-69 -5 -113.5 -46.5t-43.5 -121.5q-2 -2 -2 -47z" />
<glyph unicode="A" horiz-adv-x="1363" d="M102 0l555 1499h125l529 -1499h-137l-148 453h-627l-155 -453h-142zM442 569h543l-266 760z" />
<glyph unicode="B" horiz-adv-x="1222" d="M184 0v1499h557q87 0 155 -22.5t111.5 -59t71.5 -87.5t39.5 -104t11.5 -112q0 -127 -56.5 -217.5t-158.5 -116.5q36 -8 73 -33t71.5 -67t56 -110.5t21.5 -151.5q0 -67 -10.5 -124.5t-38.5 -113t-71.5 -94t-114 -62.5t-161.5 -24h-557zM301 117h440q279 0 279 305 q0 128 -76 216q-75 87 -200 87h-3h-440v-608zM301 844h440q127 0 199.5 69.5t73.5 200.5v7q0 73 -21 125q-22 55 -62 83.5t-86 40.5t-104 12h-440v-538z" />
<glyph unicode="C" horiz-adv-x="1177" d="M125 754q0 152 12.5 263.5t45.5 209.5t88.5 159t144 95.5t209.5 34.5q79 0 225.5 -16t253.5 -36v-88l-17 2q-17 1 -46 3t-67 4.5t-82.5 4.5t-89.5 4t-92 3.5t-85 1.5q-106 0 -174.5 -27.5t-117.5 -100t-70 -199t-21 -322.5q0 -646 383 -646q96 0 215.5 5t191.5 9l72 5 v-90q-101 -19 -247 -32t-232 -13q-500 0 -500 766z" />
<glyph unicode="D" horiz-adv-x="1353" d="M184 0v1499h543q96 0 174.5 -26t133 -69.5t95.5 -106t65.5 -127.5t39.5 -143t20 -145t5 -139q0 -106 -17.5 -208t-58.5 -200t-101 -171.5t-152 -118.5t-204 -45h-543zM301 121h426q72 0 133 24.5t106 68.5t79.5 102.5t55.5 129t31.5 145.5t10.5 154q0 637 -416 637h-426 v-1261z" />
<glyph unicode="E" horiz-adv-x="1171" d="M184 252v981q0 141 74 206q68 60 168 60h16l633 -29v-88h-633q-81 0 -111 -38t-30 -111v-428l692 -17v-90l-692 -16v-430q0 -39 10 -66.5t24 -41.5t38 -22t42.5 -9.5t47.5 -1.5h612v-86l-612 -31q-15 -1 -29 -1q-28 0 -52 3q-36 4 -74.5 20t-64.5 43.5t-42.5 76.5 t-16.5 116z" />
<glyph unicode="F" horiz-adv-x="1171" d="M184 0v1233q0 141 74 206q68 60 168 60h16l633 -29v-88h-633q-81 0 -111 -38t-30 -111v-428l692 -17v-90l-692 -16v-682h-117z" />
<glyph unicode="G" horiz-adv-x="1261" d="M125 758q0 95 4.5 171.5t17.5 157.5t34 142t57 117t84.5 92t117 57t154.5 21q79 0 244 -18t272 -38v-92q-2 0 -38 3t-92 8t-121 9.5t-137 7.5t-128 3q-88 0 -150 -27.5t-101.5 -76.5t-61.5 -132t-30.5 -178t-8.5 -231q0 -359 77.5 -503t282.5 -147q70 0 176.5 24.5 t177.5 49.5l72 25v475h-377v78q146 41 355 41q66 0 139 -6v-791h-86l-27 104q-76 -42 -192 -78t-238 -36h-10q-64 0 -118 12q-58 12 -103 33.5t-81 56.5t-61.5 74.5t-44 93t-30 107t-18 121t-9 130t-2.5 140.5z" />
<glyph unicode="H" horiz-adv-x="1323" d="M184 0v1499h117v-717h778v717h117v-1499h-117v668h-778v-668h-117z" />
<glyph unicode="I" horiz-adv-x="428" d="M184 0v1499h117v-1499h-117z" />
<glyph unicode="J" horiz-adv-x="727" d="M80 43l8 82q34 -9 57 -14.5t58 -11.5t59.5 -6.5t56 2.5t53 13t44 28t36 45t22.5 67t9 90v1161h117v-1161q0 -45 -3 -80t-13 -80t-32.5 -81.5t-57.5 -59.5q-74 -49 -196 -49h-10q-128 2 -208 55z" />
<glyph unicode="K" horiz-adv-x="1210" d="M184 0v1499h117v-688h215l479 688h142l-512 -747l512 -752h-142l-479 692h-213v-692h-119z" />
<glyph unicode="L" horiz-adv-x="1140" d="M184 258v1241h117v-1241q0 -39 10 -66.5t24 -41.5t38 -22t42.5 -9.5t47.5 -1.5h604v-117h-604q-46 0 -81.5 4.5t-74.5 20t-64.5 42.5t-42 75.5t-16.5 115.5z" />
<glyph unicode="M" horiz-adv-x="1636" d="M125 0l123 1499h162l411 -1304l402 1304h163l134 -1499h-117l-117 1298l-401 -1298h-121l-414 1298l-108 -1298h-117z" />
<glyph unicode="N" horiz-adv-x="1380" d="M184 0v1499h119l834 -1280v1280h116v-1499h-116l-836 1280v-1280h-117z" />
<glyph unicode="O" d="M150 739q0 148 14 263.5t37.5 196.5t64 138t83.5 90t106.5 52t122 24.5t141.5 5.5q65 0 113 -3.5t101 -13t91 -27t77.5 -46.5t66 -70t51 -98.5t39 -131t22.5 -169t8 -211.5q0 -110 -7.5 -200t-21.5 -161t-37 -126.5t-49.5 -96.5t-64.5 -69.5t-77 -47t-91.5 -28.5 t-103.5 -14t-117 -4q-125 0 -203 12t-155 54.5t-118.5 123t-67 218t-25.5 339.5zM266 739q0 -105 5.5 -186.5t18.5 -146t30 -110.5t46 -80t61 -54.5t79 -32.5t96 -16t117 -4q88 0 148.5 9t114.5 34t87 68.5t57.5 114t34.5 169t10 235.5q0 134 -10.5 234.5t-26.5 170.5 t-48.5 116.5t-63 73t-85 40t-99 16.5t-119.5 3q-57 0 -90.5 -1.5t-80 -7.5t-73.5 -18.5t-61 -35t-53 -56t-40 -82t-31 -113t-17 -149.5t-7 -191z" />
<glyph unicode="P" horiz-adv-x="1191" d="M137 0v1499h600q54 0 100 -8.5t96 -36t84 -72.5t56.5 -124t22.5 -185q0 -88 -12.5 -158t-31.5 -116t-50 -79.5t-59.5 -51t-68.5 -27t-69 -12t-68 -2.5q-60 0 -267.5 15t-215.5 20v-662h-117zM254 745h483q54 0 92 11t74.5 43t55.5 101q18 66 18 163v10q-1 82 -17 141 t-39 90.5t-58 49.5t-62.5 22t-63.5 4h-483v-635z" />
<glyph unicode="Q" d="M150 739q0 116 8 211.5t22.5 169t38.5 131t51 98.5t66 70t77 46.5t90.5 27t101 13t112.5 3.5q84 0 143.5 -5.5t123.5 -24t107 -52t83 -90.5t63.5 -138t37 -196t13.5 -264q0 -123 -9 -222t-28.5 -174t-45.5 -131t-64.5 -94.5t-80 -63.5t-99 -38.5t-113.5 -18.5t-131 -5 q-60 0 -105.5 2.5t-94.5 9.5t-85 20.5t-73.5 34t-63.5 51t-51 72t-41.5 95.5t-29 122.5t-18 153t-5.5 186.5zM266 739q0 -105 5 -186.5t18 -146t30 -110.5t46 -80t60.5 -54t78.5 -32.5t96 -16.5t117 -4q88 0 148.5 9t115 34t87.5 68.5t58 114t35 169t10 235.5 q0 117 -6.5 208.5t-23.5 159t-35.5 116t-52 79.5t-62.5 49.5t-79 27.5t-90 11.5t-105 2.5q-57 0 -90.5 -1.5t-80 -7.5t-73 -18.5t-60.5 -35t-53 -56t-39.5 -82t-30.5 -113t-17 -149.5t-7 -191zM672 -68h80q86 -96 210 -96q64 0 138 25v-125q-44 -17 -97 -20q-12 -1 -25 -1 q-41 0 -82 9q-54 11 -100.5 36t-80 69.5t-43.5 102.5z" />
<glyph unicode="R" horiz-adv-x="1200" d="M137 0v1499h615q350 0 350 -436q0 -411 -283 -430l322 -633h-127l-320 629q-435 24 -440 26v-655h-117zM254 754h498q30 0 50 1.5t46.5 8.5t44 19.5t36 35t29.5 55t18 80.5t7 109q0 82 -13.5 142t-34.5 93t-53.5 52t-61.5 24.5t-68 5.5h-498v-626z" />
<glyph unicode="S" horiz-adv-x="1196" d="M150 1012v135q0 108 29.5 181.5t86.5 112.5t125 54.5t160 15.5q73 0 239.5 -16.5t253.5 -28.5v-90l-493 19q-17 1 -32 1q-35 0 -63 -4q-40 -4 -77.5 -19t-61 -42.5t-37.5 -73.5t-14 -110v-135q0 -71 16 -116t51 -66t73.5 -28t99.5 -7h272q79 0 138 -19.5t94 -50t56 -76 t28.5 -90.5t7.5 -100v-140q0 -84 -24 -146t-61 -97.5t-93.5 -57t-110 -28t-121.5 -6.5q-73 0 -251 16.5t-251 28.5v90q204 -19 502 -19q35 0 63.5 2.5t65 9.5t63.5 22.5t51 38.5t37 60.5t13 85.5v140q0 108 -47.5 162.5t-159.5 54.5h-268q-94 0 -161.5 19.5t-105.5 49.5 t-59.5 77t-27.5 89.5t-6 100.5z" />
<glyph unicode="T" horiz-adv-x="1200" d="M94 1382v117h1047v-117h-471v-1382h-117v1382h-459z" />
<glyph unicode="U" horiz-adv-x="1390" d="M184 655v844h117v-844q0 -90 7 -163t16.5 -127.5t30.5 -96t38 -68.5t51 -45.5t56 -28t67 -14.5t71.5 -5.5t80.5 -0.5h8q58 0 93.5 2t85 13t79.5 32t64 61t52.5 98t31 144.5t12.5 198.5v844h117v-844q0 -138 -18 -245t-43 -176.5t-72.5 -118t-85 -72.5t-103 -36.5 t-104 -14.5t-109.5 -2q-162 0 -226 12q-153 29 -227 157q-90 157 -90 496z" />
<glyph unicode="V" horiz-adv-x="1363" d="M102 1499h129l465 -1323l488 1323h127l-553 -1499h-125z" />
<glyph unicode="W" horiz-adv-x="1976" d="M102 1499h129l463 -1309l416 1309h131l-164 -526l295 -791l424 1317h127l-485 -1499h-125l-297 780l-258 -780h-125z" />
<glyph unicode="X" horiz-adv-x="1198" d="M102 1499h131l388 -655l393 655h131l-447 -745l437 -754h-131l-383 651l-381 -651h-131l436 754z" />
<glyph unicode="Y" horiz-adv-x="1282" d="M102 1499h129l414 -825l457 825h127l-524 -967v-532h-117v532z" />
<glyph unicode="Z" horiz-adv-x="1142" d="M80 0v117l838 1265h-838v117h989v-117l-838 -1265h838v-117h-989z" />
<glyph unicode="[" horiz-adv-x="661" d="M195 -78v1450q0 36 3.5 69.5t13 76t29.5 77t49.5 65t76.5 47.5t106 17h143v-116h-143q-74 0 -118 -61.5t-44 -174.5v-1450q0 -107 41.5 -171t120.5 -64h143v-117h-143q-59 0 -106 17t-76.5 47.5t-49.5 65t-29.5 77t-13 76t-3.5 69.5z" />
<glyph unicode="\" horiz-adv-x="786" d="M45 1577h121l575 -1724h-120z" />
<glyph unicode="]" horiz-adv-x="661" d="M45 -313h143q79 0 120.5 64t41.5 171v1450q0 113 -43.5 174.5t-118.5 61.5h-143v116h143q71 0 124 -25.5t81.5 -62.5t46 -88t22.5 -91.5t5 -84.5v-1450q0 -44 -5 -84.5t-22.5 -91.5t-46 -88t-81.5 -62.5t-124 -25.5h-143v117z" />
<glyph unicode="^" horiz-adv-x="813" d="M115 1087l250 267h110l223 -267h-108l-172 177l-193 -177h-110z" />
<glyph unicode="_" horiz-adv-x="1368" d="M45 -2v117h1278v-117h-1278z" />
<glyph unicode="`" horiz-adv-x="466" d="M45 1360h148l229 -273h-105z" />
<glyph unicode="a" horiz-adv-x="1062" d="M92 258v125q0 126 73 199t200 73q234 -1 351.5 -1t117.5 1q1 68 1 102.5t-1 35.5q0 202 -203 202q-192 0 -504 -32v84q212 58 510 61h7q132 0 218 -76q88 -78 88 -239v-793h-86l-30 131l-31 -15q-31 -14 -81.5 -35t-109.5 -42.5t-126.5 -36t-120.5 -14.5q-117 0 -195 72 t-78 198zM209 268q0 -87 44 -125.5t112 -38.5h5q72 0 185 27q117 28 198 56l81 28v352l-469 -28q-81 -6 -118.5 -50t-37.5 -114v-107z" />
<glyph unicode="b" horiz-adv-x="1132" d="M137 0v1608h113v-586q92 37 209.5 59.5t193.5 22.5q89 0 156.5 -33t106.5 -85t63.5 -128.5t32.5 -151.5t8 -167q0 -81 -9.5 -154t-34.5 -147.5t-65 -128t-106 -87.5t-152 -34q-95 0 -224.5 47.5t-176.5 85.5l-33 -121h-82zM252 205q70 -31 120 -49.5t127.5 -35 t153.5 -16.5q115 0 182.5 110t67.5 325q0 106 -12.5 185.5t-33.5 129t-53.5 80t-68.5 42t-82 11.5q-113 0 -200.5 -12.5t-200.5 -42.5v-727z" />
<glyph unicode="c" horiz-adv-x="1024" d="M115 545q0 139 18 239.5t47.5 160.5t77 95t97.5 46.5t118 11.5q76 0 206 -16t241 -38v-81q-265 18 -447 18q-41 0 -69 -5t-58 -20t-49 -45t-35 -78t-23.5 -122t-7.5 -174q0 -104 10.5 -179t29 -123.5t49.5 -77.5t67 -40t86 -11q84 0 199 7t188 15l74 7v-86 q-117 -33 -219.5 -45t-241.5 -14q-67 0 -116 11.5t-97 46.5t-78 95t-48.5 161.5t-18.5 240.5z" />
<glyph unicode="d" horiz-adv-x="1132" d="M115 539q0 92 8 167t31.5 151.5t62.5 128.5t106 85t156 33q76 0 194 -22.5t210 -59.5v586h112v-1608h-80l-34 121q-47 -38 -177 -85.5t-225 -47.5q-86 0 -151.5 34t-105 87.5t-64.5 128.5t-34 147.5t-9 153.5zM231 539q0 -218 66.5 -326.5t181.5 -108.5q109 0 203.5 27 t198.5 74v727q-112 29 -200.5 42t-201.5 13q-58 0 -100.5 -19t-77.5 -66.5t-52.5 -138t-17.5 -224.5z" />
<glyph unicode="e" horiz-adv-x="1075" d="M115 549q0 81 5 146t14.5 117.5t26 93t36 70.5t49 51t60.5 34.5t74.5 21t87 10.5t101.5 3q48 0 81.5 -1.5t73 -6t66.5 -12.5t56.5 -22t49 -34t38 -49t29 -66t16.5 -86t6 -108q0 -120 -68.5 -176t-211.5 -56h-474q0 -116 14 -189.5t45.5 -114t74 -55t108.5 -14.5 q311 0 492 27v-86q-201 -57 -492 -57q-207 1 -282.5 121.5t-75.5 437.5zM231 594h474q80 0 121.5 25.5t41.5 91.5q0 62 -5.5 105t-21.5 73.5t-35.5 48t-57 27t-76 12t-101.5 2.5q-53 0 -87 -1.5t-71.5 -7.5t-59.5 -17t-45 -30.5t-35.5 -47.5t-23 -68t-14.5 -92.5t-4 -120.5z " />
<glyph unicode="f" horiz-adv-x="806" d="M45 971v86l193 30v203q0 31 1 53t5.5 58t13.5 62t26 55.5t40.5 48t60.5 31t84 12.5q166 0 293 -41v-74h-264h-7q-34 0 -59 -9q-28 -11 -43 -27t-23 -45.5t-10 -55.5t-2 -68v-203h324v-116h-324v-971h-116v971h-193z" />
<glyph unicode="g" horiz-adv-x="1146" d="M102 -57l64 161q-57 44 -57 136q0 56 36 103.5t103 55.5q-139 71 -139 306q0 387 354 387h639v-86l-187 -31q0 -1 12.5 -16.5t16.5 -22.5t15 -26t16 -36.5t11.5 -43t9.5 -57t3 -68.5q0 -30 -3 -60.5t-13 -69t-25 -73t-41.5 -68.5t-60.5 -58t-84 -39t-110 -15h-320 q-24 0 -46.5 -4t-46.5 -23.5t-24 -52.5q0 -43 34 -64.5t77 -21.5h432q130 0 202 -75.5t72 -203.5v-121q0 -42 -6 -79.5t-25.5 -81.5t-51.5 -75t-89.5 -52t-134.5 -21h-307q-149 0 -237.5 81t-88.5 234v181zM221 72v-310q0 -50 14.5 -88t36 -58t51.5 -32.5t54 -16t51 -3.5 h307q191 0 191 192v115q0 85 -38 127.5t-138 42.5h-412q-35 0 -64 7.5t-41 15.5zM225 705q0 -115 54.5 -191t169.5 -76h202q53 0 94.5 17t67 43.5t42 63t23.5 71.5q5 30 5 62v10q-3 135 -51 202.5t-152 67.5h-223q-68 0 -115 -21.5t-71.5 -61t-35 -84.5t-10.5 -103z" />
<glyph unicode="h" horiz-adv-x="1118" d="M137 0v1606h117v-645q77 46 128.5 72.5t130.5 49.5t157 23q155 0 245.5 -102.5t90.5 -245.5v-758h-117v758q0 109 -59 170t-160 61q-118 0 -200 -26t-216 -93v-870h-117z" />
<glyph unicode="i" horiz-adv-x="382" d="M115 1268v114q0 43 41 43h75q18 0 28.5 -12t10.5 -31v-114q0 -41 -39 -41h-75q-19 0 -30 11t-11 30zM131 0v1087h117v-1087h-117z" />
<glyph unicode="j" horiz-adv-x="430" d="M137 1268v114q0 43 41 43h76q18 0 28.5 -12t10.5 -31v-114q0 -41 -39 -41h-76q-19 0 -30 11t-11 30zM156 -553v1640h116v-1095v-57q0 -316 -41 -488h-75z" />
<glyph unicode="k" horiz-adv-x="1021" d="M137 0v1602h117v-918h96l461 403h166l-516 -462l516 -625h-150l-477 565h-96v-565h-117z" />
<glyph unicode="l" horiz-adv-x="612" d="M137 387v1217h117v-1217q0 -66 8.5 -114t21 -75t33 -45t37 -24.5t41.5 -11.5q158 -37 172 -37v-80h-166q-128 0 -196 91.5t-68 295.5z" />
<glyph unicode="m" horiz-adv-x="1861" d="M137 0v1087h80l37 -129q79 48 127 73t125 48t153 23q101 0 181.5 -44t117.5 -118q87 69 208.5 115.5t244.5 46.5q148 0 242 -99t94 -251v-752h-117v752q0 102 -60 167.5t-159 65.5q-121 0 -220.5 -29.5t-203.5 -95.5q10 -27 10 -104v-756h-116v752q0 102 -61.5 167.5 t-160.5 65.5q-113 0 -191 -25.5t-214 -93.5v-866h-117z" />
<glyph unicode="n" horiz-adv-x="1118" d="M137 0v1087h80l37 -126q77 46 128.5 72.5t130.5 49.5t157 23q155 0 245.5 -102.5t90.5 -245.5v-758h-117v758q0 106 -60 168.5t-159 62.5q-118 0 -200 -26t-216 -93v-870h-117z" />
<glyph unicode="o" horiz-adv-x="1165" d="M115 528q0 168 24 276.5t81.5 174.5t143.5 92.5t220 26.5q137 0 226 -30t144 -100t77 -174.5t22 -265.5q0 -154 -22.5 -254t-78 -165t-144 -92t-224.5 -27q-138 0 -227.5 28.5t-143.5 95.5t-76 165t-22 249zM231 528q0 -96 9.5 -165.5t32 -116t49 -74.5t70.5 -42.5 t86 -19t106 -4.5t107.5 5t86.5 20.5t70 44.5t48 75t30.5 114.5t9.5 162.5q0 122 -14.5 204t-39 131.5t-71 75.5t-97 34t-130.5 8q-49 0 -83 -2.5t-71.5 -9.5t-61.5 -20.5t-48.5 -36.5t-39.5 -56.5t-27 -79.5t-17 -108t-5 -140z" />
<glyph unicode="p" horiz-adv-x="1132" d="M137 -551v1638h82l33 -120q47 38 176.5 85.5t224.5 47.5q86 0 152 -34t106 -87.5t65 -128t34.5 -147.5t9.5 -154q0 -92 -8 -167t-32.5 -151.5t-63.5 -128.5t-106.5 -85t-156.5 -33q-76 0 -193.5 22.5t-209.5 59.5v-617h-113zM252 156q114 -30 201.5 -43t199.5 -13 q58 0 101 20t78 68t53 138.5t18 222.5q0 215 -67.5 324.5t-182.5 109.5q-109 0 -203.5 -27t-197.5 -73v-727z" />
<glyph unicode="q" horiz-adv-x="1138" d="M115 549q0 264 94.5 407.5t282.5 143.5q75 0 160.5 -5t136.5 -10t125.5 -14t86.5 -10v-1614h-116v612q-92 -37 -204 -58t-189 -21q-92 0 -159.5 29t-108.5 77.5t-66 123t-34 155t-9 184.5zM231 549q0 -56 2 -98t8 -91.5t17 -85.5t30.5 -71.5t46.5 -57.5t67 -35.5 t90 -13.5q110 0 185 11t208 45v831h-393q-261 0 -261 -434z" />
<glyph unicode="r" horiz-adv-x="870" d="M137 0v1087h80l37 -137q4 2 36.5 21t39 22.5t36.5 20t40.5 21t38.5 17t43 16.5t41.5 12.5t47 11.5t46 5.5t51.5 2.5q107 0 151 -17v-114q-49 12 -151 12q-77 0 -146.5 -16t-114 -35t-134.5 -62q-17 -8 -25 -12v-856h-117z" />
<glyph unicode="s" horiz-adv-x="1034" d="M92 737v94q0 132 65.5 199.5t217.5 67.5q74 0 250 -10.5t264 -18.5v-86h-514q-53 0 -87 -9.5t-51 -31t-22.5 -46.5t-5.5 -65v-94q0 -40 8.5 -66.5t20 -41t36 -21.5t44.5 -8.5t57 -1.5h303q126 0 196 -67.5t70 -184.5v-100q0 -65 -15.5 -112.5t-40 -74.5t-61 -43t-71 -21 t-78.5 -5q-68 0 -269.5 13t-271.5 20v83h541h4h2q143 0 143 140v100q0 137 -149 137h-303q-77 0 -126.5 10t-86.5 37.5t-53.5 78t-16.5 128.5z" />
<glyph unicode="t" horiz-adv-x="753" d="M45 973v86l193 31l30 303h86v-303h332v-117h-332v-586q0 -65 9 -113t21.5 -75.5t33.5 -45.5t37.5 -24.5t40.5 -11.5q158 -35 172 -35v-82h-166q-128 0 -196 91.5t-68 295.5v586h-193z" />
<glyph unicode="u" horiz-adv-x="1118" d="M115 330v757h116v-757q0 -106 60.5 -169t159.5 -63q117 0 197.5 26t217.5 95v868h117v-1087h-80l-37 127q-77 -46 -128 -72.5t-130 -49.5t-157 -23q-155 0 -245.5 102.5t-90.5 245.5z" />
<glyph unicode="v" horiz-adv-x="1085" d="M45 1087h127l369 -917l374 917h125l-442 -1087h-119z" />
<glyph unicode="w" horiz-adv-x="1624" d="M45 1087h129l348 -917l318 917h127l-125 -368l252 -549l358 917h127l-422 -1087h-119l-254 563l-198 -563h-127z" />
<glyph unicode="x" horiz-adv-x="1042" d="M55 0l394 545l-394 542h146l317 -444l324 444h145l-395 -546l385 -541h-135l-320 442l-321 -442h-146z" />
<glyph unicode="y" horiz-adv-x="1116" d="M47 1087h129l277 -849q14 -42 36 -69.5t42.5 -36.5t39 -12.5t29.5 -1.5l12 3l326 966h129l-479 -1431l-133 -209h-70l186 553q-19 0 -36 2t-48.5 15t-57.5 35t-54 67t-47 106z" />
<glyph unicode="z" horiz-adv-x="946" d="M68 971v116h811v-116l-627 -852h627v-117h-779v117l633 852h-665z" />
<glyph unicode="{" horiz-adv-x="643" d="M45 629v108q26 2 38 3.5t39 6.5t41.5 13t32 20.5t25.5 33t8 46.5v483q0 77 20 143t62 120.5t115.5 86t171.5 31.5v-116q-120 0 -186 -59t-66 -206v-483q0 -71 -48 -117t-122 -59q72 -11 120 -58.5t48 -111.5v-592q0 -123 66 -181.5t188 -53.5v-117q-64 0 -116.5 11.5 t-90.5 30.5t-67 46.5t-47 57.5t-29.5 66t-16 70t-4.5 70v584q0 63 -56.5 95.5t-125.5 27.5z" />
<glyph unicode="|" horiz-adv-x="507" d="M197 -147v1724h116v-1724h-116z" />
<glyph unicode="}" horiz-adv-x="643" d="M45 -313q123 -5 188.5 53.5t65.5 181.5v592q0 64 48 111.5t120 58.5q-74 13 -122 59t-48 117v483q0 147 -65.5 206t-186.5 59v116q98 0 171.5 -31.5t115.5 -86t62 -120.5t20 -143v-483q0 -26 8 -46.5t25.5 -33t32 -20.5t41.5 -13t39 -6.5t38 -3.5v-108 q-69 5 -125.5 -27.5t-56.5 -95.5v-584q0 -36 -4.5 -70t-16 -70t-29.5 -66t-47 -57.5t-67 -46.5t-90.5 -30.5t-116.5 -11.5v117z" />
<glyph unicode="~" horiz-adv-x="919" d="M115 1171q13 11 43 38t45 38.5t40.5 28t50 23t52.5 6.5q29 0 62.5 -15.5t58 -34t55.5 -34t56 -15.5q19 0 39.5 4.5t35 10.5t35 17.5t30.5 18t30 21t26 18.5l33 -61q-5 -4 -30 -29t-34.5 -34t-33.5 -28t-41 -27t-41.5 -15.5t-48.5 -7.5q-38 0 -81 24.5t-83.5 49 t-71.5 24.5q-35 0 -64 -10.5t-71.5 -36.5t-61.5 -35z" />
<glyph unicode="&#xa1;" horiz-adv-x="548" d="M190 791v114q0 36 41 39h74q16 -2 28.5 -13.5t12.5 -29.5v-110q-5 -46 -39 -46h-76q-20 0 -30.5 12.5t-10.5 33.5zM203 -553l10 1092h111l14 -1092h-135z" />
<glyph unicode="&#xa2;" horiz-adv-x="1001" d="M92 545q0 120 12 211t37 152t57 100.5t78.5 60t94.5 27t112 4.5v188h95v-194q119 -12 319 -50v-81q-264 20 -446 20q-49 0 -81.5 -7t-65.5 -33t-52 -73.5t-31 -130.5t-12 -202q0 -129 15 -215t47.5 -133.5t74.5 -66t105 -18.5q84 0 199 7t188 15l73 7v-86 q-151 -46 -333 -55v-178h-95v174q-54 -1 -95 3.5t-84 18.5t-73 39t-58 66.5t-44.5 100.5t-26.5 141.5t-10 187.5z" />
<glyph unicode="&#xa3;" horiz-adv-x="1222" d="M115 0v90l147 27v573h-147v70l147 28v246q0 92 12.5 163.5t32.5 120.5t55 83t69.5 53t88 29.5t98.5 13t111 2.5q52 0 147 -7.5t164 -14.5l70 -7v-86h-377q-55 0 -89.5 -1.5t-74 -6.5t-62.5 -15t-47.5 -27.5t-37 -43t-24 -62t-15.5 -84t-4 -110.5v-246l569 -28v-70h-569 v-573h729v-117h-993z" />
<glyph unicode="&#xa4;" horiz-adv-x="944" d="M117 936l61 55l86 -90q86 70 201 70q121 0 209 -72l96 94l55 -61l-94 -94q64 -84 64 -193q0 -115 -66 -207l98 -98l-65 -57l-90 92q-89 -76 -207 -76q-112 0 -199 74l-92 -90l-55 63l88 86q-68 93 -68 213q0 112 68 199zM225 641q0 -104 70 -179t170 -75q102 0 173 75 t71 179q0 101 -71.5 171.5t-172.5 70.5q-98 0 -169 -71t-71 -171z" />
<glyph unicode="&#xa5;" horiz-adv-x="1216" d="M45 1499h131l412 -725l450 725h133l-522 -842h387v-90h-389v-133h389v-90h-389v-344h-117v344h-368v90h368v133h-368v90h366z" />
<glyph unicode="&#xa6;" horiz-adv-x="509" d="M197 -147v671h116v-671h-116zM197 879v698h116v-698h-116z" />
<glyph unicode="&#xa7;" horiz-adv-x="1134" d="M125 1208v144q0 72 22.5 124t62 79t84 39t97.5 12q68 0 269.5 -13t271.5 -20v-84h-541q-76 0 -111.5 -33t-37.5 -104v-144q0 -65 39 -89.5t110 -24.5h346q85 0 140 -15.5t84 -49t39.5 -75t9.5 -102.5v-127q0 -33 -2.5 -56.5t-10.5 -54.5t-28 -49t-51 -22 q31 -5 50.5 -21.5t27 -43.5t10 -48.5t2.5 -54.5v-150q0 -64 -17.5 -110.5t-43.5 -71t-67 -38.5t-74.5 -17.5t-80.5 -3.5q-68 0 -261 12.5t-263 19.5v84h524q82 0 124 25.5t42 99.5v150q0 71 -30 91.5t-124 20.5h-346q-69 0 -112 8t-80.5 31.5t-54.5 72t-17 124.5v127 q0 81 21.5 128.5t76.5 61.5q-36 9 -59.5 36t-32 60t-8.5 72zM242 723q0 -34 6.5 -56t15.5 -34.5t30.5 -18.5t40 -7t56.5 -1h346q56 0 87.5 5.5t46 23t17.5 35t3 55.5v127q0 38 -4.5 59t-20.5 38t-46.5 23.5t-82.5 6.5h-346q-47 0 -70.5 -3t-44 -16t-27.5 -39.5t-7 -72.5 v-125z" />
<glyph unicode="&#xa8;" horiz-adv-x="911" d="M115 1192q0 34 24 57t58 23q32 0 54.5 -23t22.5 -57t-22.5 -58t-54.5 -24q-34 0 -58 24t-24 58zM637 1192q0 34 24 57t58 23q32 0 55 -23t23 -57t-23 -58t-55 -24q-34 0 -58 24t-24 58z" />
<glyph unicode="&#xa9;" horiz-adv-x="1697" d="M125 754q0 76 5.5 146.5t20 147t37.5 140.5t60.5 122.5t85.5 99.5t116 65t150 24h543q430 0 430 -745q0 -154 -24.5 -285.5t-74 -238.5t-134.5 -168.5t-197 -61.5h-543q-108 0 -193.5 53t-137 133t-85.5 185t-46.5 199t-12.5 184zM221 754q0 -118 23 -231t67.5 -210 t119.5 -156.5t169 -60.5h543q145 2 239.5 173t94.5 485q0 649 -334 649h-543q-376 0 -379 -649zM485 748q0 234 80 340t215 106q106 0 365 -45v-76q-179 25 -365 25q-198 0 -198 -357q0 -166 44 -255t154 -89q188 0 377 33v-76q-188 -53 -377 -53q-65 0 -115 19.5t-92.5 67 t-65 138.5t-22.5 222z" />
<glyph unicode="&#xaa;" horiz-adv-x="741" d="M68 565v88h606v-88h-606zM68 948v94q0 84 55 134.5t149 50.5q303 -2 303 0q2 63 0 65q0 131 -157 131q-94 0 -326 -20v63q11 2 71 14.5t84.5 16.5t78.5 9.5t108 6.5q104 2 170 -50.5t66 -159.5v-529h-62l-30 100l-20 -11q-21 -11 -53.5 -27t-70.5 -32t-82 -27t-80 -11 q-85 0 -144.5 48.5t-59.5 133.5zM164 969q0 -109 121 -109q55 0 127.5 19.5t117.5 38.5l45 20v221l-290 -16q-56 -3 -88.5 -31t-32.5 -82v-61z" />
<glyph unicode="&#xab;" horiz-adv-x="1122" d="M115 725l420 416l83 -82l-339 -334l350 -344l-82 -82zM494 725l421 416l82 -82l-340 -334l353 -344l-84 -82z" />
<glyph unicode="&#xac;" horiz-adv-x="1081" d="M115 541v118h854v-333h-117v215h-737z" />
<glyph unicode="&#xad;" horiz-adv-x="733" d="M45 537v114h643v-114h-643z" />
<glyph unicode="&#xae;" horiz-adv-x="1697" d="M125 754q0 76 5.5 146.5t20 147t37.5 140.5t60.5 122.5t85.5 99.5t116 65t150 24h543q430 0 430 -745q0 -154 -24.5 -285.5t-74 -238.5t-134.5 -168.5t-197 -61.5h-543q-108 0 -193.5 53t-137 133t-85.5 185t-46.5 199t-12.5 184zM221 754q0 -118 23 -231t67.5 -210 t119.5 -156.5t169 -60.5h543q145 2 239.5 173t94.5 485q0 649 -334 649h-543q-376 0 -379 -649zM551 313v875h362q44 0 80 -6t72.5 -23t61 -45.5t40 -75.5t15.5 -110q0 -79 -18 -131t-55 -75.5t-59 -30.5t-63 -13q-8 -1 -12 -2l199 -363h-109l-201 363l-217 20v-383h-96z M647 762h279q92 0 125.5 32.5t33.5 131.5q0 51 -13 85.5t-37 51.5t-49.5 23t-59.5 6h-279v-330z" />
<glyph unicode="&#xaf;" horiz-adv-x="798" d="M115 1087v97h571v-97h-571z" />
<glyph unicode="&#xb0;" horiz-adv-x="643" d="M115 1294q0 88 61.5 149.5t147.5 61.5t146 -61.5t60 -149.5t-60 -148.5t-146 -60.5q-87 0 -148 61t-61 148zM188 1294q0 -55 40 -94t96 -39t94.5 38.5t38.5 94.5t-39 96t-94 40q-56 0 -96 -40t-40 -96z" />
<glyph unicode="&#xb1;" horiz-adv-x="1083" d="M129 213v117h832v-117h-832zM129 809v117h356v358h117v-358h359v-117h-359v-356h-117v356h-356z" />
<glyph unicode="&#xb2;" horiz-adv-x="808" d="M69.5 1706q-0.5 18 0.5 36t2 17q211 25 374 25q267 0 267 -279q0 -239 -439 -597q-5 -4 -7 -6t-5.5 -4.5t-5.5 -4.5h455v-96h-633v88q16 13 71.5 56t95.5 76t99.5 84t101.5 97t83 98.5t62 104t21 98.5q0 95 -40.5 142t-143.5 47h-356q-2 0 -2.5 18z" />
<glyph unicode="&#xb3;" horiz-adv-x="851" d="M68 1679v64q20 6 44 11t42.5 8.5t49.5 5.5t46.5 3.5t54 2t50.5 0.5h58h56q125 0 186.5 -67.5t61.5 -168.5v-72q0 -70 -39.5 -119t-85.5 -63q50 -24 87.5 -72t37.5 -122v-58q0 -118 -58 -181t-202 -63q-108 0 -150 0.5t-111.5 8.5t-119.5 24l2 62l362 2q99 0 138.5 34 t39.5 121v47q0 77 -49 115.5t-120 40.5l-291 10v70l291 12q80 3 127 41.5t47 104.5v53q0 145 -168 145h-387z" />
<glyph unicode="&#xb4;" horiz-adv-x="466" d="M45 1087l229 273h148l-272 -273h-105z" />
<glyph unicode="&#xb5;" horiz-adv-x="1232" d="M207 330v757h117v-757q0 -106 60 -169t159 -63q117 0 197.5 26t217.5 95v868h117v-1087h-80l-37 127q-77 -46 -128 -72.5t-130 -49.5t-157 -23q-134 0 -219 88v-623h-117v883z" />
<glyph unicode="&#xb6;" horiz-adv-x="1181" d="M92 1022v190q0 93 48 160t118.5 97t153.5 30h727v-121h-142v-1378h-116v1382h-242v-1935h-117v1311q-1 -1 -14.5 -7.5t-24 -11t-31 -9t-40.5 -3.5q-152 0 -236 84.5t-84 210.5zM209 1026q0 -45 16 -80t38.5 -53.5t52.5 -30t52.5 -15t43.5 -3.5h110v538h-110 q-102 0 -152.5 -51.5t-50.5 -122.5v-182z" />
<glyph unicode="&#xb7;" horiz-adv-x="550" d="M195 739v86q0 43 41 43h79q41 0 41 -43v-86q0 -39 -41 -39h-79q-17 0 -29 11t-12 28z" />
<glyph unicode="&#xb8;" horiz-adv-x="526" d="M115 -299l94 23q56 17 78.5 61.5t21.5 138.5h103q0 -159 -42.5 -218.5t-164.5 -59.5h-90v55z" />
<glyph unicode="&#xb9;" horiz-adv-x="542" d="M37 1587v72l262 113h96v-975h-96v868z" />
<glyph unicode="&#xba;" horiz-adv-x="790" d="M68 1126q0 113 15 183.5t53.5 116.5t101 64.5t161.5 18.5t160.5 -18t98.5 -65t51 -117t14 -183q0 -103 -14 -168t-50.5 -110.5t-99 -64.5t-160.5 -19t-161.5 19t-101.5 64t-53 111t-15 168zM92 569v86h610v-86h-610zM164 1126q0 -72 9.5 -120.5t26 -77.5t47.5 -44.5 t64.5 -20.5t87.5 -5q45 0 73.5 2.5t57.5 12t44.5 26.5t29.5 47t19 74t6 106q1 65 -4 111.5t-18 79t-29 51.5t-44.5 29.5t-58.5 14t-76 3.5q-48 0 -76.5 -2.5t-58.5 -12.5t-46 -28.5t-30 -50.5t-19 -79.5t-5 -115.5z" />
<glyph unicode="&#xbb;" horiz-adv-x="1122" d="M115 381l352 344l-342 334l82 82l422 -416l-430 -426zM494 381l352 344l-340 334l82 82l422 -416l-432 -426z" />
<glyph unicode="&#xbc;" horiz-adv-x="1828" d="M37 1315v71l262 113h96v-975h-96v869zM444 0l740 1526h100l-739 -1526h-101zM1006 317l413 654h111l-373 -592h410v248l43 98h53v-346h121v-76l-121 -27v-276h-96v276h-529z" />
<glyph unicode="&#xbd;" horiz-adv-x="1972" d="M37 1315v71l262 113h96v-975h-96v869zM430 0l737 1526h103l-740 -1526h-100zM1236.5 909.5q-0.5 18.5 0.5 36.5t2 17q202 24 375 24q266 0 266 -278q0 -46 -17.5 -97.5t-41.5 -95t-65 -95.5t-72.5 -87t-81 -81t-72.5 -66.5t-65 -55.5l-42 -35h455v-96h-633v88 q16 13 71.5 56t95.5 76t100 84.5t102 97.5t83 98t62 104t21 98q0 96 -40.5 142.5t-144.5 46.5h-356q-2 0 -2.5 18.5z" />
<glyph unicode="&#xbe;" horiz-adv-x="2072" d="M68 1407v63q20 6 44 11t42.5 8.5t49.5 5.5t46.5 3.5t54 2t50.5 0.5h58h56q125 0 186.5 -67t61.5 -168v-72q0 -70 -39.5 -119t-85.5 -63q50 -24 87.5 -72.5t37.5 -122.5v-57q0 -118 -58 -181t-202 -63q-108 0 -150 0.5t-111.5 8.5t-119.5 24l2 61l362 2q99 0 138.5 34.5 t39.5 121.5v47q0 77 -49 115.5t-120 40.5l-291 10v70l291 12q80 3 127 41t47 104v54q0 145 -168 145h-387zM662 0l739 1526h100l-739 -1526h-100zM1178 317l413 654h105l-373 -596h420v252l41 98h51v-350h121v-72l-121 -24v-279h-92v279h-533z" />
<glyph unicode="&#xbf;" horiz-adv-x="1101" d="M90 43q-1 185 135.5 265.5t376.5 49.5v16q1 16 1 38t0.5 48t0.5 48.5t-0.5 38.5t-1.5 18h123l2 -303h-268q-105 -3 -167.5 -63.5t-66.5 -165.5q-2 -178 -2 -207q0 -122 70 -191.5t221 -66.5l545 2q-2 0 -2 -21.5v-42.5t-2 -20q-321 -42 -557 -35q-98 -1 -172 20t-118 56 t-71.5 86.5t-37 104t-9.5 116.5v209zM586 809v111q0 18 11.5 30.5t27.5 14.5h75q41 -4 41 -41v-115q-3 -40 -36 -43h-84q-35 8 -35 43z" />
<glyph unicode="&#xc0;" horiz-adv-x="1363" d="M102 0l555 1499h125l529 -1499h-137l-148 453h-627l-155 -453h-142zM395 1905h148l227 -273h-102zM442 569h543l-266 760z" />
<glyph unicode="&#xc1;" horiz-adv-x="1363" d="M102 0l555 1499h125l529 -1499h-137l-148 453h-627l-155 -453h-142zM442 569h543l-266 760zM668 1632l229 273h145l-272 -273h-102z" />
<glyph unicode="&#xc2;" horiz-adv-x="1363" d="M102 0l555 1499h125l529 -1499h-137l-148 453h-627l-155 -453h-142zM428 1632l250 266h108l226 -266h-109l-174 176l-192 -176h-109zM442 569h543l-266 760z" />
<glyph unicode="&#xc3;" horiz-adv-x="1363" d="M102 0l555 1499h125l529 -1499h-137l-148 453h-627l-155 -453h-142zM373 1710q51 43 79.5 64.5t72 42t81.5 20.5q41 -2 86.5 -26.5t84 -48t63.5 -23.5q17 -1 35 3t43.5 16.5t35.5 18t43.5 25.5t34.5 21l33 -62q-5 -4 -39.5 -33t-48 -38t-41.5 -27t-51.5 -24t-48.5 -5 q-44 2 -87 26.5t-79.5 48t-65.5 22.5q-39 -1 -68 -11.5t-70 -35.5t-60 -35zM442 569h543l-266 760z" />
<glyph unicode="&#xc4;" horiz-adv-x="1363" d="M102 0l555 1499h125l529 -1499h-137l-148 453h-627l-155 -453h-142zM379 1714q0 34 23 57t57 23t57 -23t23 -57t-23 -58t-57 -24t-57 24t-23 58zM442 569h543l-266 760zM899 1714q0 34 24 57t58 23t57 -23t23 -57t-23 -58t-57 -24t-58 24t-24 58z" />
<glyph unicode="&#xc5;" horiz-adv-x="1363" d="M102 0l555 1499h25q-73 14 -121.5 71.5t-48.5 133.5q0 88 61.5 149.5t147.5 61.5t146.5 -61.5t60.5 -149.5q0 -76 -48 -133.5t-120 -71.5h22l529 -1499h-137l-148 453h-627l-155 -453h-142zM442 569h543l-266 760zM586 1704q0 -55 39.5 -94t95.5 -39q55 0 94 38.5 t39 94.5t-39 95.5t-94 39.5t-95 -39.5t-40 -95.5z" />
<glyph unicode="&#xc6;" horiz-adv-x="1894" d="M68 0l665 1227q35 65 68.5 112t69.5 77t67 47.5t74.5 25.5t78 9.5t89.5 0.5l618 -29v-90h-618q-50 0 -79.5 -9t-41.5 -30.5t-15 -41t-4 -56.5v-14v-430l676 -19v-88l-676 -18v-424q0 -39 10.5 -66.5t23 -40.5t39 -19.5t41.5 -7.5t48 -1l594 -2v-93l-594 -28 q-44 -3 -80.5 1t-74.5 19.5t-64 43t-42.5 76.5t-16.5 116v235h-463l-262 -483h-131zM522 598h402v741z" />
<glyph unicode="&#xc7;" horiz-adv-x="1177" d="M125 754q0 152 12.5 263.5t45.5 209.5t88.5 159t144 95.5t209.5 34.5q79 0 225.5 -16t253.5 -36v-88l-17 2q-17 1 -46 3t-67 4.5t-82.5 4.5t-89.5 4t-92 3.5t-85 1.5q-106 0 -174.5 -27.5t-117.5 -100t-70 -199t-21 -322.5q0 -646 383 -646q96 0 215.5 5t191.5 9l72 5 v-90q-101 -19 -247 -32t-232 -13q-500 0 -500 766zM442 -297l95 23q57 17 79 61t21 139h102q0 -159 -42.5 -218.5t-164.5 -59.5h-90v55z" />
<glyph unicode="&#xc8;" horiz-adv-x="1171" d="M184 252v981q0 141 73.5 206t184.5 60l633 -29v-88h-633q-81 0 -111 -38t-30 -111v-428l692 -17v-90l-692 -16v-430q0 -39 10 -66.5t24 -41.5t38 -22t42.5 -9.5t47.5 -1.5h612v-86l-612 -31q-45 -2 -81.5 2t-74.5 20t-64 43.5t-42.5 76.5t-16.5 116zM377 1894h147 l228 -272h-103z" />
<glyph unicode="&#xc9;" horiz-adv-x="1171" d="M184 252v981q0 141 73.5 206t184.5 60l633 -29v-88h-633q-81 0 -111 -38t-30 -111v-428l692 -17v-90l-692 -16v-430q0 -39 10 -66.5t24 -41.5t38 -22t42.5 -9.5t47.5 -1.5h612v-86l-612 -31q-45 -2 -81.5 2t-74.5 20t-64 43.5t-42.5 76.5t-16.5 116zM618 1622l230 272 h147l-272 -272h-105z" />
<glyph unicode="&#xca;" horiz-adv-x="1171" d="M184 252v981q0 141 73.5 206t184.5 60l633 -29v-88h-633q-81 0 -111 -38t-30 -111v-428l692 -17v-90l-692 -16v-430q0 -39 10 -66.5t24 -41.5t38 -22t42.5 -9.5t47.5 -1.5h612v-86l-612 -31q-45 -2 -81.5 2t-74.5 20t-64 43.5t-42.5 76.5t-16.5 116zM369 1632l249 266 h111l223 -266h-108l-174 176l-191 -176h-110z" />
<glyph unicode="&#xcb;" horiz-adv-x="1171" d="M184 252v981q0 141 73.5 206t184.5 60l633 -29v-88h-633q-81 0 -111 -38t-30 -111v-428l692 -17v-90l-692 -16v-430q0 -39 10 -66.5t24 -41.5t38 -22t42.5 -9.5t47.5 -1.5h612v-86l-612 -31q-45 -2 -81.5 2t-74.5 20t-64 43.5t-42.5 76.5t-16.5 116zM313 1726q0 34 23 57 t57 23t57 -23t23 -57t-23 -57.5t-57 -23.5t-57 23.5t-23 57.5zM834 1726q0 34 23.5 57t57.5 23t57 -23t23 -57t-23 -57.5t-57 -23.5t-57.5 23.5t-23.5 57.5z" />
<glyph unicode="&#xcc;" horiz-adv-x="428" d="M-82 1905h145l230 -273h-103zM184 0v1499h117v-1499h-117z" />
<glyph unicode="&#xcd;" horiz-adv-x="428" d="M184 0v1499h117v-1499h-117zM190 1632l230 273h145l-272 -273h-103z" />
<glyph unicode="&#xce;" horiz-adv-x="428" d="M-51 1632l252 266h108l226 -266h-109l-174 176l-193 -176h-110zM184 0v1499h117v-1499h-117z" />
<glyph unicode="&#xcf;" horiz-adv-x="428" d="M-100 1714q0 34 24 57t58 23t56.5 -23t22.5 -57t-23 -58t-56 -24q-34 0 -58 24t-24 58zM184 0v1499h117v-1499h-117zM422 1714q0 34 24 57t58 23t57 -23t23 -57t-23 -58t-57 -24t-58 24t-24 58z" />
<glyph unicode="&#xd0;" horiz-adv-x="1353" d="M51 723v82h133v692q0 2 537 2q96 0 175 -26.5t133 -69.5t95 -105.5t64.5 -127.5t38 -143.5t19.5 -144.5t5 -139q0 -106 -17 -208t-57.5 -200t-99.5 -171.5t-151 -118.5t-205 -45h-537v723h-133zM301 121h420q106 0 187.5 53t128.5 143.5t70 198t23 229.5 q0 165 -28.5 287.5t-82.5 197t-128 110.5t-170 36l-420 -2v-569h297v-82h-297v-602z" />
<glyph unicode="&#xd1;" horiz-adv-x="1380" d="M184 0v1499h119l834 -1280v1280h116v-1499h-116l-836 1280v-1280h-117zM373 1710q40 34 59.5 49.5t52.5 37.5t62 31t59 9q40 -2 85.5 -26.5t84 -48t62.5 -23.5q17 -1 35 3t43.5 16.5t35.5 18t43.5 25.5t34.5 21l35 -62q-5 -4 -39.5 -33t-48 -38t-41.5 -27t-51.5 -24 t-48.5 -5q-44 2 -87.5 26.5t-80.5 48t-66 22.5q-39 -1 -68 -11.5t-69.5 -35.5t-61.5 -35z" />
<glyph unicode="&#xd2;" d="M150 739q0 148 14 263.5t37.5 196.5t64 138t83.5 90t106.5 52t122 24.5t141.5 5.5q65 0 113 -3.5t101 -13t91 -27t77.5 -46.5t66 -70t51 -98.5t39 -131t22.5 -169t8 -211.5q0 -110 -7.5 -200t-21.5 -161t-37 -126.5t-49.5 -96.5t-64.5 -69.5t-77 -47t-91.5 -28.5 t-103.5 -14t-117 -4q-125 0 -203 12t-155 54.5t-118.5 123t-67 218t-25.5 339.5zM266 739q0 -105 5.5 -186.5t18.5 -146t30 -110.5t46 -80t61 -54.5t79 -32.5t96 -16t117 -4q88 0 148.5 9t114.5 34t87 68.5t57.5 114t34.5 169t10 235.5q0 134 -10.5 234.5t-26.5 170.5 t-48.5 116.5t-63 73t-85 40t-99 16.5t-119.5 3q-57 0 -90.5 -1.5t-80 -7.5t-73.5 -18.5t-61 -35t-53 -56t-40 -82t-31 -113t-17 -149.5t-7 -191zM395 1905h148l229 -273h-104z" />
<glyph unicode="&#xd3;" d="M150 739q0 148 14 263.5t37.5 196.5t64 138t83.5 90t106.5 52t122 24.5t141.5 5.5q65 0 113 -3.5t101 -13t91 -27t77.5 -46.5t66 -70t51 -98.5t39 -131t22.5 -169t8 -211.5q0 -110 -7.5 -200t-21.5 -161t-37 -126.5t-49.5 -96.5t-64.5 -69.5t-77 -47t-91.5 -28.5 t-103.5 -14t-117 -4q-125 0 -203 12t-155 54.5t-118.5 123t-67 218t-25.5 339.5zM266 739q0 -105 5.5 -186.5t18.5 -146t30 -110.5t46 -80t61 -54.5t79 -32.5t96 -16t117 -4q88 0 148.5 9t114.5 34t87 68.5t57.5 114t34.5 169t10 235.5q0 134 -10.5 234.5t-26.5 170.5 t-48.5 116.5t-63 73t-85 40t-99 16.5t-119.5 3q-57 0 -90.5 -1.5t-80 -7.5t-73.5 -18.5t-61 -35t-53 -56t-40 -82t-31 -113t-17 -149.5t-7 -191zM668 1632l229 273h147l-272 -273h-104z" />
<glyph unicode="&#xd4;" d="M150 739q0 148 14 263.5t37.5 196.5t64 138t83.5 90t106.5 52t122 24.5t141.5 5.5q65 0 113 -3.5t101 -13t91 -27t77.5 -46.5t66 -70t51 -98.5t39 -131t22.5 -169t8 -211.5q0 -110 -7.5 -200t-21.5 -161t-37 -126.5t-49.5 -96.5t-64.5 -69.5t-77 -47t-91.5 -28.5 t-103.5 -14t-117 -4q-125 0 -203 12t-155 54.5t-118.5 123t-67 218t-25.5 339.5zM266 739q0 -105 5.5 -186.5t18.5 -146t30 -110.5t46 -80t61 -54.5t79 -32.5t96 -16t117 -4q88 0 148.5 9t114.5 34t87 68.5t57.5 114t34.5 169t10 235.5q0 134 -10.5 234.5t-26.5 170.5 t-48.5 116.5t-63 73t-85 40t-99 16.5t-119.5 3q-57 0 -90.5 -1.5t-80 -7.5t-73.5 -18.5t-61 -35t-53 -56t-40 -82t-31 -113t-17 -149.5t-7 -191zM428 1632l250 266h110l224 -266h-109l-174 176l-192 -176h-109z" />
<glyph unicode="&#xd5;" d="M150 739q0 148 14 263.5t37.5 196.5t64 138t83.5 90t106.5 52t122 24.5t141.5 5.5q65 0 113 -3.5t101 -13t91 -27t77.5 -46.5t66 -70t51 -98.5t39 -131t22.5 -169t8 -211.5q0 -110 -7.5 -200t-21.5 -161t-37 -126.5t-49.5 -96.5t-64.5 -69.5t-77 -47t-91.5 -28.5 t-103.5 -14t-117 -4q-125 0 -203 12t-155 54.5t-118.5 123t-67 218t-25.5 339.5zM266 739q0 -105 5.5 -186.5t18.5 -146t30 -110.5t46 -80t61 -54.5t79 -32.5t96 -16t117 -4q88 0 148.5 9t114.5 34t87 68.5t57.5 114t34.5 169t10 235.5q0 134 -10.5 234.5t-26.5 170.5 t-48.5 116.5t-63 73t-85 40t-99 16.5t-119.5 3q-57 0 -90.5 -1.5t-80 -7.5t-73.5 -18.5t-61 -35t-53 -56t-40 -82t-31 -113t-17 -149.5t-7 -191zM373 1710q51 43 79.5 64.5t72 42t81.5 20.5q41 -2 86.5 -26.5t84 -48t63.5 -23.5q17 -1 35 3t43.5 16.5t35.5 18t43.5 25.5 t34.5 21l33 -62q-5 -4 -39.5 -33t-48 -38t-41.5 -27t-51.5 -24t-48.5 -5q-44 2 -87 26.5t-79.5 48t-65.5 22.5q-39 -1 -68 -11.5t-70 -35.5t-60 -35z" />
<glyph unicode="&#xd6;" d="M150 739q0 148 14 263.5t37.5 196.5t64 138t83.5 90t106.5 52t122 24.5t141.5 5.5q65 0 113 -3.5t101 -13t91 -27t77.5 -46.5t66 -70t51 -98.5t39 -131t22.5 -169t8 -211.5q0 -110 -7.5 -200t-21.5 -161t-37 -126.5t-49.5 -96.5t-64.5 -69.5t-77 -47t-91.5 -28.5 t-103.5 -14t-117 -4q-125 0 -203 12t-155 54.5t-118.5 123t-67 218t-25.5 339.5zM266 739q0 -105 5.5 -186.5t18.5 -146t30 -110.5t46 -80t61 -54.5t79 -32.5t96 -16t117 -4q88 0 148.5 9t114.5 34t87 68.5t57.5 114t34.5 169t10 235.5q0 134 -10.5 234.5t-26.5 170.5 t-48.5 116.5t-63 73t-85 40t-99 16.5t-119.5 3q-57 0 -90.5 -1.5t-80 -7.5t-73.5 -18.5t-61 -35t-53 -56t-40 -82t-31 -113t-17 -149.5t-7 -191zM379 1714q0 34 23 57t57 23t57 -23t23 -57t-23 -58t-57 -24t-57 24t-23 58zM899 1714q0 34 24 57t58 23t57 -23t23 -57t-23 -58 t-57 -24t-58 24t-24 58z" />
<glyph unicode="&#xd7;" horiz-adv-x="923" d="M129 477l252 250l-252 254l82 82l252 -252l254 252l82 -82l-254 -254l254 -250l-82 -84l-254 252l-250 -250z" />
<glyph unicode="&#xd8;" d="M150 739q0 116 8.5 211.5t22.5 169t38.5 131t51.5 98.5t66 70t77.5 46.5t91 27t101 13t112.5 3.5q134 0 224 -17.5t155 -70.5l51 78h94l-88 -135q133 -172 133 -625q0 -110 -7.5 -200t-21.5 -161t-37 -126.5t-49.5 -96.5t-64.5 -69.5t-77 -47t-91.5 -28.5t-103.5 -14 t-117 -4q-139 0 -230.5 17.5t-156.5 68.5l-51 -78h-97l88 137q-62 80 -92 225t-30 377zM266 739q0 -359 78 -489l690 1071q-52 46 -122.5 59t-192.5 13q-57 0 -90.5 -1.5t-80 -7.5t-73.5 -18.5t-61 -35t-53 -56t-40 -82t-31 -113t-17 -149.5t-7 -191zM397 184 q51 -43 127 -59t195 -16q88 0 148.5 9t114.5 34t87 68.5t57.5 114t34.5 169t10 235.5q0 372 -84 516z" />
<glyph unicode="&#xd9;" horiz-adv-x="1390" d="M184 655v844h117v-844q0 -90 7 -163t16.5 -127.5t30.5 -96t38 -68.5t51 -45.5t56 -28t67 -14.5t71.5 -5.5t80.5 -0.5h8q58 0 93.5 2t85 13t79.5 32t64 61t52.5 98t31 144.5t12.5 198.5v844h117v-844q0 -138 -18 -245t-43 -176.5t-72.5 -118t-85 -72.5t-103 -36.5 t-104 -14.5t-109.5 -2q-162 0 -226 12q-153 29 -227 157q-90 157 -90 496zM399 1905h146l229 -273h-102z" />
<glyph unicode="&#xda;" horiz-adv-x="1390" d="M184 655v844h117v-844q0 -90 7 -163t16.5 -127.5t30.5 -96t38 -68.5t51 -45.5t56 -28t67 -14.5t71.5 -5.5t80.5 -0.5h8q58 0 93.5 2t85 13t79.5 32t64 61t52.5 98t31 144.5t12.5 198.5v844h117v-844q0 -138 -18 -245t-43 -176.5t-72.5 -118t-85 -72.5t-103 -36.5 t-104 -14.5t-109.5 -2q-162 0 -226 12q-153 29 -227 157q-90 157 -90 496zM672 1632l229 273h146l-273 -273h-102z" />
<glyph unicode="&#xdb;" horiz-adv-x="1390" d="M184 655v844h117v-844q0 -90 7 -163t16.5 -127.5t30.5 -96t38 -68.5t51 -45.5t56 -28t67 -14.5t71.5 -5.5t80.5 -0.5h8q58 0 93.5 2t85 13t79.5 32t64 61t52.5 98t31 144.5t12.5 198.5v844h117v-844q0 -138 -18 -245t-43 -176.5t-72.5 -118t-85 -72.5t-103 -36.5 t-104 -14.5t-109.5 -2q-162 0 -226 12q-153 29 -227 157q-90 157 -90 496zM430 1632l250 266h111l225 -266h-109l-174 176l-192 -176h-111z" />
<glyph unicode="&#xdc;" horiz-adv-x="1390" d="M184 655v844h117v-844q0 -90 7 -163t16.5 -127.5t30.5 -96t38 -68.5t51 -45.5t56 -28t67 -14.5t71.5 -5.5t80.5 -0.5h8q58 0 93.5 2t85 13t79.5 32t64 61t52.5 98t31 144.5t12.5 198.5v844h117v-844q0 -138 -18 -245t-43 -176.5t-72.5 -118t-85 -72.5t-103 -36.5 t-104 -14.5t-109.5 -2q-162 0 -226 12q-153 29 -227 157q-90 157 -90 496zM381 1714q0 34 24 57t58 23t57 -23t23 -57t-23 -58t-57 -24t-58 24t-24 58zM903 1714q0 34 24 57t58 23t57 -23t23 -57t-23 -58t-57 -24t-58 24t-24 58z" />
<glyph unicode="&#xdd;" horiz-adv-x="1282" d="M102 1499h129l414 -825l457 825h127l-524 -967v-532h-117v532zM614 1632l230 273h145l-272 -273h-103z" />
<glyph unicode="&#xde;" horiz-adv-x="1136" d="M137 0v1493h117v-289h418q360 -4 360 -436q0 -87 -12.5 -157t-32 -117.5t-49.5 -83t-60 -55t-68.5 -31.5t-69.5 -15.5t-68 -3.5h-37.5h-43t-42 0.5t-50.5 2t-51 4t-60 6t-62 8.5t-72 12v-338h-117zM254 422h418q55 -1 95.5 13.5t75 51.5t52.5 108.5t18 176.5 q0 70 -11.5 124t-32 87t-43 54.5t-52 31t-52 13t-50.5 3.5h-418v-663z" />
<glyph unicode="&#xdf;" horiz-adv-x="1163" d="M137 0v1159q0 121 50 217.5t153 155.5t244 59q109 0 194 -21.5t136.5 -58t83 -85t38 -101.5t-2 -109t-32.5 -107t-58.5 -94.5t-76.5 -72.5q-27 -22 -69 -53.5t-60.5 -46.5t-41 -37.5t-30.5 -44t-8 -47.5q0 -34 25.5 -56t66.5 -33.5t90 -21.5t98.5 -25t90.5 -37.5 t66.5 -66.5t25.5 -106v-97q1 -61 -18 -110.5t-50.5 -81.5t-74.5 -54t-87.5 -31t-92.5 -9t-105 4.5t-94 9.5t-90 12.5t-66 9.5v91q3 0 140 -5.5t221 -5.5q94 0 146.5 50.5t54.5 119.5v97q0 38 -25 62.5t-66 37t-90.5 21.5t-99 22.5t-90.5 35t-66.5 64t-25.5 103.5 q0 90 47 146.5t209 174.5q52 37 85.5 93.5t37.5 121.5q6 61 -18.5 106t-73 70.5t-109 37.5t-135.5 12q-148 0 -239 -79.5t-91 -236.5v-1159h-117z" />
<glyph unicode="&#xe0;" horiz-adv-x="1062" d="M92 258v125q0 126 73 199t200 73q469 -2 469 0q2 136 0 138q0 202 -203 202q-192 0 -504 -32v84q212 58 510 61q137 2 225 -76.5t88 -238.5v-793h-86l-30 131l-31 -15q-31 -14 -81.5 -35t-109.5 -42.5t-126.5 -36t-120.5 -14.5q-117 0 -195 72t-78 198zM209 268 q0 -87 44 -125.5t112 -38.5q73 -1 190 27t198 56l81 28v352l-469 -28q-81 -6 -118.5 -50t-37.5 -114v-107zM225 1503h146l229 -272h-102z" />
<glyph unicode="&#xe1;" horiz-adv-x="1062" d="M92 258v125q0 126 73 199t200 73q469 -2 469 0q2 136 0 138q0 202 -203 202q-192 0 -504 -32v84q212 58 510 61q137 2 225 -76.5t88 -238.5v-793h-86l-30 131l-31 -15q-31 -14 -81.5 -35t-109.5 -42.5t-126.5 -36t-120.5 -14.5q-117 0 -195 72t-78 198zM209 268 q0 -87 44 -125.5t112 -38.5q73 -1 190 27t198 56l81 28v352l-469 -28q-81 -6 -118.5 -50t-37.5 -114v-107zM487 1231l228 272h147l-272 -272h-103z" />
<glyph unicode="&#xe2;" horiz-adv-x="1062" d="M92 258v125q0 126 73 199t200 73q469 -2 469 0q2 136 0 138q0 202 -203 202q-192 0 -504 -32v84q212 58 510 61q137 2 225 -76.5t88 -238.5v-793h-86l-30 131l-31 -15q-31 -14 -81.5 -35t-109.5 -42.5t-126.5 -36t-120.5 -14.5q-117 0 -195 72t-78 198zM209 268 q0 -87 44 -125.5t112 -38.5q73 -1 190 27t198 56l81 28v352l-469 -28q-81 -6 -118.5 -50t-37.5 -114v-107zM250 1231l252 266h108l226 -266h-109l-174 176l-193 -176h-110z" />
<glyph unicode="&#xe3;" horiz-adv-x="1062" d="M92 258v125q0 126 73 199t200 73q469 -2 469 0q2 136 0 138q0 202 -203 202q-192 0 -504 -32v84q212 58 510 61q137 2 225 -76.5t88 -238.5v-793h-86l-30 131l-31 -15q-31 -14 -81.5 -35t-109.5 -42.5t-126.5 -36t-120.5 -14.5q-117 0 -195 72t-78 198zM186 1315 q37 31 59.5 48.5t54.5 38.5t61.5 30.5t58.5 9.5q40 -2 85.5 -26t83.5 -48t62 -25q26 -1 61 13t59.5 28.5t60.5 37.5q8 6 12 8l35 -62q-5 -4 -29 -24.5t-32.5 -27t-30 -23t-34.5 -23l-32 -16t-36.5 -12.5t-35.5 -3q-44 2 -87 26.5t-79 47.5t-65 22q-39 0 -68.5 -10.5 t-70.5 -36t-62 -35.5zM209 268q0 -87 44 -125.5t112 -38.5q73 -1 190 27t198 56l81 28v352l-469 -28q-81 -6 -118.5 -50t-37.5 -114v-107z" />
<glyph unicode="&#xe4;" horiz-adv-x="1062" d="M92 258v125q0 126 73 199t200 73q469 -2 469 0q2 136 0 138q0 202 -203 202q-192 0 -504 -32v84q212 58 510 61q137 2 225 -76.5t88 -238.5v-793h-86l-30 131l-31 -15q-31 -14 -81.5 -35t-109.5 -42.5t-126.5 -36t-120.5 -14.5q-117 0 -195 72t-78 198zM199 1335 q0 34 24 57t58 23q32 0 54.5 -23t22.5 -57t-22.5 -58t-54.5 -24q-34 0 -58 24t-24 58zM209 268q0 -87 44 -125.5t112 -38.5q73 -1 190 27t198 56l81 28v352l-469 -28q-81 -6 -118.5 -50t-37.5 -114v-107zM721 1335q0 34 24 57t58 23q32 0 55 -23t23 -57t-23 -58t-55 -24 q-34 0 -58 24t-24 58z" />
<glyph unicode="&#xe5;" horiz-adv-x="1062" d="M92 258v125q0 126 73 199t200 73q469 -2 469 0q2 136 0 138q0 202 -203 202q-192 0 -504 -32v84q212 58 510 61q137 2 225 -76.5t88 -238.5v-793h-86l-30 131l-31 -15q-31 -14 -81.5 -35t-109.5 -42.5t-126.5 -36t-120.5 -14.5q-117 0 -195 72t-78 198zM209 268 q0 -87 44 -125.5t112 -38.5q73 -1 190 27t198 56l81 28v352l-469 -28q-81 -6 -118.5 -50t-37.5 -114v-107zM332 1378q0 88 61.5 149.5t147.5 61.5t145 -61.5t59 -149.5t-59 -148.5t-145 -60.5q-87 0 -148 61t-61 148zM403 1378q0 -55 41 -94t97 -39q55 0 94 38.5t39 94.5 t-39 95.5t-94 39.5q-56 0 -97 -40t-41 -95z" />
<glyph unicode="&#xe6;" horiz-adv-x="1796" d="M92 266v74q0 126 73 199t200 73q469 -2 469 0q2 187 0 189q0 203 -203 203q-176 0 -504 -33v84q191 58 510 61q93 2 165 -36t109 -115q44 81 134 110t243 29q49 0 81.5 -1t73 -5t66.5 -11.5t56.5 -21t49 -33t37.5 -47.5t29 -65t16.5 -85.5t6.5 -107.5q0 -119 -69 -175 t-212 -56h-471q-1 -81 2 -134t12.5 -99t25 -71.5t43.5 -44.5t66 -25.5t93 -6.5q294 -3 489 26v-86q-201 -57 -489 -57q-60 0 -108.5 8.5t-78.5 20t-58.5 33.5t-41.5 37t-35 42l-35 -15q-35 -14 -91 -35t-120.5 -42.5t-136 -36t-124.5 -14.5q-117 0 -195 72t-78 198zM209 276 q0 -87 44 -125t112 -38q73 -1 190 27.5t198 57.5l81 29v303l-469 -26q-81 -4 -118.5 -49t-37.5 -115v-64zM952 610h471q84 0 124 25t40 92q0 47 -3 82t-11.5 62.5t-18 46t-29 31.5t-38.5 20.5t-52.5 11.5t-64 5t-80.5 1q-71 0 -114.5 -3.5t-86 -17t-65 -37.5t-41 -66.5 t-25 -103.5t-6.5 -149z" />
<glyph unicode="&#xe7;" horiz-adv-x="1024" d="M115 545q0 139 18 240t47.5 161t77 95t97.5 47t118 12q159 0 447 -56v-81q-265 20 -447 20q-49 0 -81.5 -7t-65.5 -33t-52 -73.5t-31 -130.5t-12 -202q0 -129 15 -215t47.5 -133.5t74.5 -66t105 -18.5q84 0 199 7t188 15l74 7v-86q-117 -33 -219.5 -45t-241.5 -14 q-66 0 -115.5 12t-97.5 47t-78 95.5t-48.5 162t-18.5 240.5zM348 -299l94 25q56 17 78.5 61t22.5 139h102q0 -160 -42.5 -219t-164.5 -59h-90v53z" />
<glyph unicode="&#xe8;" horiz-adv-x="1075" d="M115 549q0 81 5 146t14.5 117.5t26 93t36 70.5t49 51t60.5 34.5t74.5 21t87 10.5t101.5 3q48 0 81.5 -1.5t73 -6t66.5 -12.5t56.5 -22t49 -34t38 -49t29 -66t16.5 -86t6 -108q0 -120 -68.5 -176t-211.5 -56h-474q0 -116 14 -189.5t45.5 -114t74 -55t108.5 -14.5 q311 0 492 27v-86q-201 -57 -492 -57q-207 1 -282.5 121.5t-75.5 437.5zM231 594h474q80 0 121.5 25.5t41.5 91.5q0 62 -5.5 105t-21.5 73.5t-35.5 48t-57 27t-76 12t-101.5 2.5q-53 0 -87 -1.5t-71.5 -7.5t-59.5 -17t-45 -30.5t-35.5 -47.5t-23 -68t-14.5 -92.5t-4 -120.5z M256 1489h145l230 -272h-103z" />
<glyph unicode="&#xe9;" horiz-adv-x="1075" d="M115 549q0 81 5 146t14.5 117.5t26 93t36 70.5t49 51t60.5 34.5t74.5 21t87 10.5t101.5 3q48 0 81.5 -1.5t73 -6t66.5 -12.5t56.5 -22t49 -34t38 -49t29 -66t16.5 -86t6 -108q0 -120 -68.5 -176t-211.5 -56h-474q0 -116 14 -189.5t45.5 -114t74 -55t108.5 -14.5 q311 0 492 27v-86q-201 -57 -492 -57q-207 1 -282.5 121.5t-75.5 437.5zM231 594h474q80 0 121.5 25.5t41.5 91.5q0 62 -5.5 105t-21.5 73.5t-35.5 48t-57 27t-76 12t-101.5 2.5q-53 0 -87 -1.5t-71.5 -7.5t-59.5 -17t-45 -30.5t-35.5 -47.5t-23 -68t-14.5 -92.5t-4 -120.5z M510 1217l229 272h148l-273 -272h-104z" />
<glyph unicode="&#xea;" horiz-adv-x="1075" d="M115 549q0 81 5 146t14.5 117.5t26 93t36 70.5t49 51t60.5 34.5t74.5 21t87 10.5t101.5 3q48 0 81.5 -1.5t73 -6t66.5 -12.5t56.5 -22t49 -34t38 -49t29 -66t16.5 -86t6 -108q0 -120 -68.5 -176t-211.5 -56h-474q0 -116 14 -189.5t45.5 -114t74 -55t108.5 -14.5 q311 0 492 27v-86q-201 -57 -492 -57q-207 1 -282.5 121.5t-75.5 437.5zM231 594h474q80 0 121.5 25.5t41.5 91.5q0 62 -5.5 105t-21.5 73.5t-35.5 48t-57 27t-76 12t-101.5 2.5q-53 0 -87 -1.5t-71.5 -7.5t-59.5 -17t-45 -30.5t-35.5 -47.5t-23 -68t-14.5 -92.5t-4 -120.5z M266 1217l250 266h111l225 -266h-109l-174 176l-192 -176h-111z" />
<glyph unicode="&#xeb;" horiz-adv-x="1075" d="M115 549q0 81 5 146t14.5 117.5t26 93t36 70.5t49 51t60.5 34.5t74.5 21t87 10.5t101.5 3q48 0 81.5 -1.5t73 -6t66.5 -12.5t56.5 -22t49 -34t38 -49t29 -66t16.5 -86t6 -108q0 -120 -68.5 -176t-211.5 -56h-474q0 -116 14 -189.5t45.5 -114t74 -55t108.5 -14.5 q311 0 492 27v-86q-201 -57 -492 -57q-207 1 -282.5 121.5t-75.5 437.5zM219 1321q0 34 23 57t57 23t57 -23t23 -57t-23 -57t-57 -23t-57 23t-23 57zM231 594h474q80 0 121.5 25.5t41.5 91.5q0 62 -5.5 105t-21.5 73.5t-35.5 48t-57 27t-76 12t-101.5 2.5q-53 0 -87 -1.5 t-71.5 -7.5t-59.5 -17t-45 -30.5t-35.5 -47.5t-23 -68t-14.5 -92.5t-4 -120.5zM739 1321q0 34 24 57t58 23t57 -23t23 -57t-23 -57t-57 -23t-58 23t-24 57z" />
<glyph unicode="&#xec;" horiz-adv-x="391" d="M-129 1493h147l230 -272h-105zM137 0v1087h117v-1087h-117z" />
<glyph unicode="&#xed;" horiz-adv-x="391" d="M137 0v1087h117v-1087h-117zM143 1221l230 272h147l-272 -272h-105z" />
<glyph unicode="&#xee;" horiz-adv-x="391" d="M-96 1221l250 266h110l223 -266h-108l-174 176l-191 -176h-110zM137 0v1087h117v-1087h-117z" />
<glyph unicode="&#xef;" horiz-adv-x="391" d="M-145 1303q0 33 23 56t56 23q34 0 57 -22.5t23 -56.5t-23 -58t-57 -24q-32 0 -55.5 24t-23.5 58zM137 0v1087h117v-1087h-117zM377 1303q0 33 23.5 56t56.5 23q34 0 57 -22.5t23 -56.5t-23 -58t-57 -24q-32 0 -56 24t-24 58z" />
<glyph unicode="&#xf0;" horiz-adv-x="1101" d="M92 541q0 274 83 410t282 136h184q52 0 111.5 -20.5t78.5 -44.5q-58 219 -169 330l-310 -123l-35 92l254 100q-127 83 -307 80v103q266 0 430 -136l250 101l37 -92l-207 -82q58 -68 102 -158t69 -177t40 -186t20 -176t5 -157q0 -149 -26.5 -256t-76.5 -168t-115.5 -89 t-150.5 -28h-184q-105 0 -175.5 32t-112.5 101.5t-59.5 167.5t-17.5 240zM209 541q0 -111 12.5 -189.5t32.5 -123t54 -69t67 -31.5t82 -7h184q74 0 124.5 29.5t78 88t38.5 130.5t11 172q0 90 -5.5 153t-21.5 118.5t-44 88.5t-73 51.5t-108 18.5h-184q-49 0 -84.5 -10 t-68 -37.5t-52.5 -74.5t-31.5 -124t-11.5 -184z" />
<glyph unicode="&#xf1;" horiz-adv-x="1118" d="M137 0v1087h80l37 -126q77 46 128.5 72.5t130.5 49.5t157 23q155 0 245.5 -102.5t90.5 -245.5v-758h-117v758q0 106 -60 168.5t-159 62.5q-118 0 -200 -26t-216 -93v-870h-117zM225 1307q37 31 59.5 48.5t54.5 38.5t61.5 30.5t58.5 9.5q40 -2 85.5 -26.5t83.5 -48.5 t62 -24q13 0 26 2t30 8.5t27 10.5t30.5 15.5t26 14.5t29 17.5t24.5 15.5l35 -61q-9 -7 -34 -28t-37.5 -31t-36 -26t-40.5 -23.5t-39 -13.5t-43 -5q-44 2 -87 26.5t-79 47.5t-65 22q-39 -1 -68.5 -11.5t-70.5 -35.5t-62 -35z" />
<glyph unicode="&#xf2;" horiz-adv-x="1165" d="M115 528q0 168 24 276.5t81.5 174.5t143.5 92.5t220 26.5q137 0 226 -30t144 -100t77 -174.5t22 -265.5q0 -154 -22.5 -254t-78 -165t-144 -92t-224.5 -27q-138 0 -227.5 28.5t-143.5 95.5t-76 165t-22 249zM231 528q0 -96 9.5 -165.5t32 -116t49 -74.5t70.5 -42.5 t86 -19t106 -4.5t107.5 5t86.5 20.5t70 44.5t48 75t30.5 114.5t9.5 162.5q0 122 -14.5 204t-39 131.5t-71 75.5t-97 34t-130.5 8q-49 0 -83 -2.5t-71.5 -9.5t-61.5 -20.5t-48.5 -36.5t-39.5 -56.5t-27 -79.5t-17 -108t-5 -140zM272 1493h148l227 -272h-102z" />
<glyph unicode="&#xf3;" horiz-adv-x="1165" d="M115 528q0 168 24 276.5t81.5 174.5t143.5 92.5t220 26.5q137 0 226 -30t144 -100t77 -174.5t22 -265.5q0 -154 -22.5 -254t-78 -165t-144 -92t-224.5 -27q-138 0 -227.5 28.5t-143.5 95.5t-76 165t-22 249zM231 528q0 -96 9.5 -165.5t32 -116t49 -74.5t70.5 -42.5 t86 -19t106 -4.5t107.5 5t86.5 20.5t70 44.5t48 75t30.5 114.5t9.5 162.5q0 122 -14.5 204t-39 131.5t-71 75.5t-97 34t-130.5 8q-49 0 -83 -2.5t-71.5 -9.5t-61.5 -20.5t-48.5 -36.5t-39.5 -56.5t-27 -79.5t-17 -108t-5 -140zM532 1221l228 272h147l-272 -272h-103z" />
<glyph unicode="&#xf4;" horiz-adv-x="1165" d="M115 528q0 168 24 276.5t81.5 174.5t143.5 92.5t220 26.5q137 0 226 -30t144 -100t77 -174.5t22 -265.5q0 -154 -22.5 -254t-78 -165t-144 -92t-224.5 -27q-138 0 -227.5 28.5t-143.5 95.5t-76 165t-22 249zM231 528q0 -96 9.5 -165.5t32 -116t49 -74.5t70.5 -42.5 t86 -19t106 -4.5t107.5 5t86.5 20.5t70 44.5t48 75t30.5 114.5t9.5 162.5q0 122 -14.5 204t-39 131.5t-71 75.5t-97 34t-130.5 8q-49 0 -83 -2.5t-71.5 -9.5t-61.5 -20.5t-48.5 -36.5t-39.5 -56.5t-27 -79.5t-17 -108t-5 -140zM297 1221l250 266h110l226 -266h-109l-174 176 l-192 -176h-111z" />
<glyph unicode="&#xf5;" horiz-adv-x="1165" d="M115 528q0 168 24 276.5t81.5 174.5t143.5 92.5t220 26.5q137 0 226 -30t144 -100t77 -174.5t22 -265.5q0 -154 -22.5 -254t-78 -165t-144 -92t-224.5 -27q-138 0 -227.5 28.5t-143.5 95.5t-76 165t-22 249zM231 528q0 -96 9.5 -165.5t32 -116t49 -74.5t70.5 -42.5 t86 -19t106 -4.5t107.5 5t86.5 20.5t70 44.5t48 75t30.5 114.5t9.5 162.5q0 122 -14.5 204t-39 131.5t-71 75.5t-97 34t-130.5 8q-49 0 -83 -2.5t-71.5 -9.5t-61.5 -20.5t-48.5 -36.5t-39.5 -56.5t-27 -79.5t-17 -108t-5 -140zM250 1298q40 34 59.5 49.5t52.5 37.5t62 31 t59 9q40 -2 85.5 -26.5t84 -48t62.5 -23.5q17 -1 35 3t43.5 16.5t35.5 18t43.5 25.5t34.5 21l35 -61q-5 -4 -39.5 -33t-48 -38t-41.5 -27t-51.5 -24t-48.5 -5q-45 2 -88.5 26.5t-80 47.5t-65.5 22q-39 -1 -68 -12t-68.5 -35t-61.5 -35z" />
<glyph unicode="&#xf6;" horiz-adv-x="1165" d="M115 528q0 168 24 276.5t81.5 174.5t143.5 92.5t220 26.5q137 0 226 -30t144 -100t77 -174.5t22 -265.5q0 -154 -22.5 -254t-78 -165t-144 -92t-224.5 -27q-138 0 -227.5 28.5t-143.5 95.5t-76 165t-22 249zM231 528q0 -96 9.5 -165.5t32 -116t49 -74.5t70.5 -42.5 t86 -19t106 -4.5t107.5 5t86.5 20.5t70 44.5t48 75t30.5 114.5t9.5 162.5q0 122 -14.5 204t-39 131.5t-71 75.5t-97 34t-130.5 8q-49 0 -83 -2.5t-71.5 -9.5t-61.5 -20.5t-48.5 -36.5t-39.5 -56.5t-27 -79.5t-17 -108t-5 -140zM244 1303q0 34 23 56.5t57 22.5t56.5 -22.5 t22.5 -56.5t-23 -58t-56 -24q-34 0 -57 24t-23 58zM764 1303q0 33 24 56t58 23t57 -22.5t23 -56.5t-23 -58t-57 -24t-58 24t-24 58z" />
<glyph unicode="&#xf7;" horiz-adv-x="1079" d="M115 664v118h852v-118h-852zM469 344v102q0 43 41 43h76q18 0 28.5 -12t10.5 -31v-102q0 -18 -10.5 -28.5t-28.5 -10.5h-76q-19 0 -30 11t-11 28zM469 981v104q0 41 41 41h76q18 0 28.5 -11.5t10.5 -29.5v-104q0 -37 -39 -37h-76q-19 0 -30 10t-11 27z" />
<glyph unicode="&#xf8;" horiz-adv-x="1165" d="M115 528q0 168 24 276.5t81.5 174.5t143.5 92.5t220 26.5q194 0 297 -66l43 55h102l-80 -108q57 -66 82 -175.5t25 -275.5q0 -154 -22.5 -254t-78 -165t-144 -92t-224.5 -27q-215 0 -318 73l-47 -63h-96l86 117q-51 63 -72.5 162t-21.5 249zM231 528q0 -212 56 -307 l526 715q-69 45 -229 45q-49 0 -83 -2.5t-71.5 -9.5t-61.5 -20.5t-48.5 -36.5t-39.5 -56.5t-27 -79.5t-17 -108t-5 -140zM336 160q71 -54 248 -54q55 0 93.5 3.5t78 13.5t65.5 29t49.5 50t37 75.5t21 107t7.5 143.5q0 256 -66 353z" />
<glyph unicode="&#xf9;" horiz-adv-x="1118" d="M115 330v757h116v-757q0 -106 60.5 -169t159.5 -63q117 0 197.5 26t217.5 95v868h117v-1087h-80l-37 127q-77 -46 -128 -72.5t-130 -49.5t-157 -23q-155 0 -245.5 102.5t-90.5 245.5zM238 1493h147l229 -272h-104z" />
<glyph unicode="&#xfa;" horiz-adv-x="1118" d="M115 330v757h116v-757q0 -106 60.5 -169t159.5 -63q117 0 197.5 26t217.5 95v868h117v-1087h-80l-37 127q-77 -46 -128 -72.5t-130 -49.5t-157 -23q-155 0 -245.5 102.5t-90.5 245.5zM498 1221l229 272h145l-272 -272h-102z" />
<glyph unicode="&#xfb;" horiz-adv-x="1118" d="M115 330v757h116v-757q0 -106 60.5 -169t159.5 -63q117 0 197.5 26t217.5 95v868h117v-1087h-80l-37 127q-77 -46 -128 -72.5t-130 -49.5t-157 -23q-155 0 -245.5 102.5t-90.5 245.5zM256 1221l252 266h108l226 -266h-109l-174 176l-192 -176h-111z" />
<glyph unicode="&#xfc;" horiz-adv-x="1118" d="M115 330v757h116v-757q0 -106 60.5 -169t159.5 -63q117 0 197.5 26t217.5 95v868h117v-1087h-80l-37 127q-77 -46 -128 -72.5t-130 -49.5t-157 -23q-155 0 -245.5 102.5t-90.5 245.5zM207 1303q0 33 24 56t58 23t57 -22.5t23 -56.5t-23 -58t-57 -24t-58 24t-24 58z M729 1303q0 33 24 56t58 23t57 -22.5t23 -56.5t-23 -58t-57 -24t-58 24t-24 58z" />
<glyph unicode="&#xfd;" horiz-adv-x="1116" d="M47 1087h129l277 -849q14 -42 36 -69.5t42.5 -36.5t39 -12.5t29.5 -1.5l12 3l326 966h129l-479 -1431l-133 -209h-70l186 553q-19 0 -36 2t-48.5 15t-57.5 35t-54 67t-47 106zM506 1221l229 272h146l-273 -272h-102z" />
<glyph unicode="&#xfe;" horiz-adv-x="1138" d="M160 -553v2155h116v-637q52 38 186.5 89.5t227.5 51.5q81 0 144 -32t103 -84t65.5 -126t36 -151.5t10.5 -165.5q0 -76 -5 -138t-18 -130t-38.5 -119t-64 -93.5t-98 -64.5t-135.5 -22q-79 0 -201 21t-213 58v-612h-116zM276 150q79 -22 157.5 -34t124 -14.5t132.5 -5.5 q124 0 183 103t59 352q0 213 -65 325.5t-177 112.5q-151 -7 -414 -108v-731z" />
<glyph unicode="&#xff;" horiz-adv-x="1116" d="M47 1087h129l277 -849q14 -42 36 -69.5t42.5 -36.5t39 -12.5t29.5 -1.5l12 3l326 966h129l-479 -1431l-133 -209h-70l186 553q-19 0 -36 2t-48.5 15t-57.5 35t-54 67t-47 106zM215 1303q0 33 24 56t58 23t57 -22.5t23 -56.5t-23 -58t-57 -24t-58 24t-24 58zM737 1303 q0 33 24 56t58 23t57 -22.5t23 -56.5t-23 -58t-57 -24t-58 24t-24 58z" />
<glyph unicode="&#x152;" horiz-adv-x="2158" d="M150 739q0 116 8.5 211.5t23 169t39 131t52 98.5t66.5 70t77.5 46.5t91 27.5t100 13t111.5 3q88 0 150 -7t124.5 -27t109.5 -61t81 -105q18 102 83.5 148.5t159.5 41.5l615 -29v-88h-615q-79 0 -110 -38t-31 -111q0 -377 2 -428l672 -17v-90l-672 -16l-2 -430 q1 -39 11 -66.5t24 -41.5t37.5 -22t42 -9.5t47.5 -1.5h594v-86l-594 -31q-51 -2 -90.5 4t-77.5 25t-63 59.5t-35 101.5q-64 -113 -174 -152.5t-289 -39.5q-125 0 -203 12t-155 54.5t-118.5 123t-67 218t-25.5 339.5zM266 739q0 -105 5.5 -186.5t18.5 -146t30 -110.5t46 -80 t61 -54.5t79 -32.5t96 -16t117 -4q90 0 152.5 9.5t116 36t85.5 70.5t55 116t32 169.5t9 234.5q0 92 -4 168t-14.5 136t-22 107.5t-32 83t-40 60.5t-50.5 42t-58 27.5t-68 15.5t-75.5 6.5t-85.5 1.5q-57 0 -90.5 -1.5t-80 -7.5t-73.5 -18.5t-61 -35t-53 -56t-40 -82t-31 -113 t-17 -149.5t-7 -191z" />
<glyph unicode="&#x153;" horiz-adv-x="1892" d="M115 528q0 168 24 276.5t81.5 174.5t143.5 92.5t220 26.5q161 0 257 -45.5t146 -145.5q22 59 57 97t87.5 58t111 27t143.5 7q48 0 81.5 -1.5t73 -6t66.5 -12.5t56.5 -22t49 -34t38 -49t29 -66t16.5 -86t6 -108q0 -120 -68.5 -176t-211.5 -56h-471q-2 -146 24 -228 t76.5 -113.5t138.5 -31.5q311 0 492 27v-86q-201 -57 -492 -57q-122 0 -195 42.5t-110 137.5q-47 -96 -143 -138t-258 -42q-138 0 -227.5 28.5t-143.5 95.5t-76 165t-22 249zM231 528q0 -96 9.5 -165.5t32 -116t49 -74.5t70.5 -42.5t86 -19t106 -4.5q86 0 142 11.5t99 39 t65.5 78.5t33 124.5t10.5 183.5q0 111 -13 187.5t-37.5 126t-69 76.5t-97.5 37.5t-133 10.5q-49 0 -83 -2.5t-71.5 -9.5t-61.5 -20.5t-48.5 -36.5t-39.5 -56.5t-27 -79.5t-17 -108t-5 -140zM1051 594h471q81 0 122.5 25.5t41.5 91.5q0 62 -5.5 105t-21.5 73.5t-35.5 48 t-57 27t-76 12t-101.5 2.5q-69 0 -113 -4t-87 -18t-66.5 -39.5t-42.5 -68.5t-25 -105t-4 -150z" />
<glyph unicode="&#x178;" horiz-adv-x="1282" d="M102 1499h129l414 -825l457 825h127l-524 -967v-532h-117v532zM326 1714q0 34 23 57t57 23t56.5 -23t22.5 -57t-23 -58t-56 -24q-34 0 -57 24t-23 58zM846 1714q0 34 24 57t58 23t57 -23t23 -57t-23 -58t-57 -24t-58 24t-24 58z" />
<glyph unicode="&#x2c6;" horiz-adv-x="813" d="M115 1087l250 267h110l223 -267h-108l-174 177l-191 -177h-110z" />
<glyph unicode="&#x2dc;" horiz-adv-x="919" d="M115 1171q51 43 79.5 64.5t72 42t81.5 20.5q40 -2 85.5 -26t84.5 -47.5t64 -24.5q11 0 23.5 2t22.5 5t25.5 10t24 11t26 14.5t23.5 14t24.5 15.5t22.5 14l33 -61q-6 -5 -28.5 -24.5t-32 -27t-30 -23t-34 -23t-32.5 -16.5t-36.5 -12t-35.5 -3q-44 2 -87 26.5t-79.5 47.5 t-65.5 22q-39 0 -68.5 -10.5t-70.5 -36t-62 -35.5z" />
<glyph unicode="&#x2000;" horiz-adv-x="957" />
<glyph unicode="&#x2001;" horiz-adv-x="1915" />
<glyph unicode="&#x2002;" horiz-adv-x="957" />
<glyph unicode="&#x2003;" horiz-adv-x="1915" />
<glyph unicode="&#x2004;" horiz-adv-x="638" />
<glyph unicode="&#x2005;" horiz-adv-x="478" />
<glyph unicode="&#x2006;" horiz-adv-x="319" />
<glyph unicode="&#x2007;" horiz-adv-x="319" />
<glyph unicode="&#x2008;" horiz-adv-x="239" />
<glyph unicode="&#x2009;" horiz-adv-x="383" />
<glyph unicode="&#x200a;" horiz-adv-x="106" />
<glyph unicode="&#x2010;" horiz-adv-x="712" d="M45 537v114h623v-114h-623z" />
<glyph unicode="&#x2011;" horiz-adv-x="712" d="M45 537v114h623v-114h-623z" />
<glyph unicode="&#x2012;" horiz-adv-x="712" d="M45 537v114h623v-114h-623z" />
<glyph unicode="&#x2013;" horiz-adv-x="1058" d="M45 528v119h969v-119h-969z" />
<glyph unicode="&#x2014;" horiz-adv-x="1515" d="M45 532v119h1425v-119h-1425z" />
<glyph unicode="&#x2018;" horiz-adv-x="481" d="M154 1163v207q0 36 9 62.5t23.5 41t32 24t35.5 11.5t32.5 2.5t23.5 -1.5l9 -1v-53q-20 1 -33 -4.5t-18 -16t-6.5 -18.5t-1.5 -18v-64h23q20 0 33.5 -12.5t13.5 -36.5v-123q0 -51 -47 -51h-84q-45 0 -45 51z" />
<glyph unicode="&#x2019;" horiz-adv-x="481" d="M154 1337v123q0 53 49 53h82q47 0 47 -53l-2 -207q0 -36 -9 -62.5t-24 -41t-32.5 -24t-35 -11.5t-32.5 -2.5t-24 0.5l-9 2v51q20 -1 33 5t18 17t6.5 19t1.5 19v63h-22q-20 0 -33.5 12.5t-13.5 36.5z" />
<glyph unicode="&#x201a;" horiz-adv-x="481" d="M154 47v123q0 53 47 53h84q45 0 45 -53v-205q0 -36 -9 -63t-24 -42t-32.5 -24.5t-35 -11.5t-32.5 -2.5t-24 0.5l-9 2v51q20 -1 33 5t18 17t6.5 19.5t1.5 20.5v61h-22q-20 0 -33.5 12.5t-13.5 36.5z" />
<glyph unicode="&#x201c;" horiz-adv-x="741" d="M139 1163v207q0 49 17.5 81t42 43.5t49 15.5t42.5 2l17 -3v-53q-20 1 -33 -4.5t-18 -16t-6.5 -18.5t-1.5 -18v-64h20q21 0 35 -12.5t14 -36.5v-123q0 -51 -49 -51h-84q-45 0 -45 51zM426 1163v207q0 49 17.5 81t42 43.5t49 15.5t41.5 2l18 -3v-53q-20 1 -33 -4.5t-18 -16 t-6.5 -18.5t-1.5 -18v-64h22q20 0 32.5 -12.5t12.5 -36.5v-123q0 -51 -45 -51h-84q-47 0 -47 51z" />
<glyph unicode="&#x201d;" horiz-adv-x="741" d="M139 1337v123q0 53 47 53h84q47 0 47 -53v-207q0 -36 -9 -62.5t-24 -41t-32.5 -24t-35.5 -11.5t-33 -2.5t-24 0.5l-9 2v51q20 -1 32.5 5t17.5 17.5t6 19t1 18.5v63h-21q-20 0 -33.5 12.5t-13.5 36.5zM426 1337v123q0 53 49 53h84q43 0 43 -53v-207q0 -36 -9 -62.5 t-24 -41t-32.5 -24t-35 -11.5t-32.5 -2.5t-24 0.5l-9 2v51q26 -1 40.5 11t17 23t2.5 26v63h-21q-21 0 -35 12.5t-14 36.5z" />
<glyph unicode="&#x201e;" horiz-adv-x="741" d="M139 49v123q0 53 47 53h84q47 0 47 -53v-207q0 -36 -9 -63t-24 -42t-32.5 -24.5t-35.5 -11.5t-33 -2.5t-24 0.5l-9 2v53q20 -1 32.5 5t17.5 17.5t6 19t1 18.5v63h-21q-20 0 -33.5 12.5t-13.5 36.5zM426 49v123q0 53 49 53h84q43 0 43 -53v-207q0 -36 -9 -63t-24 -42 t-32.5 -24.5t-35 -11.5t-32.5 -2.5t-24 0.5l-9 2v53q26 -1 40.5 11t17 23t2.5 26v63h-21q-21 0 -35 12.5t-14 36.5z" />
<glyph unicode="&#x2022;" horiz-adv-x="645" d="M195 717v127q0 35 17 54.5t50 19.5h117q72 0 72 -74v-127q0 -66 -72 -66h-117q-31 0 -49 17.5t-18 48.5z" />
<glyph unicode="&#x2026;" horiz-adv-x="1665" d="M190 39v121q0 43 41 43h80q41 0 41 -43v-121q0 -39 -41 -39h-80q-19 0 -30 11t-11 28zM748 39v121q0 43 40 43h80q41 0 41 -43v-121q0 -39 -41 -39h-80q-18 0 -29 11t-11 28zM1305 39v121q0 43 41 43h79q41 0 41 -43v-121q0 -39 -41 -39h-79q-19 0 -30 11t-11 28z" />
<glyph unicode="&#x202f;" horiz-adv-x="383" />
<glyph unicode="&#x2039;" horiz-adv-x="727" d="M115 725l422 416l81 -82l-342 -334l353 -344l-82 -82z" />
<glyph unicode="&#x203a;" horiz-adv-x="727" d="M115 381l352 344l-342 334l82 82l422 -416l-432 -426z" />
<glyph unicode="&#x205f;" horiz-adv-x="478" />
<glyph unicode="&#x20ac;" horiz-adv-x="1239" d="M45 535v73l180 10v236l-180 12v68l180 14v16q0 39 0.5 62t4.5 71.5t12 81.5t24.5 80.5t39.5 80t60 68.5t83.5 57.5t112 36t143.5 14.5q77 0 223 -17.5t258 -38.5v-88q-311 27 -481 27q-70 0 -124.5 -12t-92.5 -32.5t-65 -54t-42.5 -68t-24.5 -84.5t-11.5 -94.5 t-2.5 -105.5l514 -10v-74l-514 -10v-236l514 -12v-74q-33 0 -86.5 -1t-167 -2.5t-188 -3.5t-72.5 -3q-1 -202 96 -309t267 -109q92 -1 214.5 7t198.5 16l76 8v-86q-235 -61 -489 -61q-38 0 -76.5 5t-87.5 20t-91.5 39t-85 65.5t-72.5 95.5t-48.5 133.5t-18.5 175.5z" />
<glyph unicode="&#x2122;" horiz-adv-x="1425" d="M45 1403v96h530v-96h-215v-619h-96v619h-219zM655 784l56 715h94l225 -549l201 549h96l64 -715h-95l-43 494l-180 -494h-80l-205 496l-36 -496h-97z" />
<glyph unicode="&#xe000;" horiz-adv-x="1085" d="M0 0v1085h1085v-1085h-1085z" />
<glyph unicode="&#xfb03;" horiz-adv-x="1982" d="M45 971v86l203 30v183q0 32 1 54t6 58t14.5 61.5t28 55t44.5 47.5t66.5 30.5t91.5 12.5q109 0 266 -45v-76l-240 7q-94 3 -127.5 -47t-33.5 -158l-5 -183h625v109q0 185 104 299.5t285 114.5q66 0 179.5 -18t199.5 -42v-75l-352 20q-60 3 -111.5 -11t-94.5 -47.5t-68 -95 t-25 -145.5v-109l743 -18v-1069h-119v971h-626v-971h-117v971h-623v-971h-116v971h-199z" />
<glyph unicode="&#xfb04;" horiz-adv-x="2203" d="M45 971v86l203 30v183q0 32 1 54t6 58t14.5 61.5t28 55t44.5 47.5t66.5 30.5t91.5 12.5q109 0 266 -45v-76l-240 7q-94 3 -127.5 -47t-33.5 -158l-5 -183h623v109q0 68 11 127.5t36 112.5t63 90.5t95 59.5t129 22h530v-1219q0 -66 7.5 -113.5t18.5 -74.5t32 -44.5 t38 -24.5t46 -13q158 -37 172 -37v-80h-166q-141 0 -202.5 88.5t-61.5 298.5v1108h-385q-119 0 -182.5 -68t-63.5 -233v-109h299v-116h-303v-971h-117v971h-619v-971h-116v971h-199z" />
</font>
</defs>
</svg>
